<svg xmlns="http://www.w3.org/2000/svg" xmlns:xlink="http://www.w3.org/1999/xlink" xmlns:lucid="lucid" width="1140" height="1120"><g transform="translate(-60 0)" lucid:page-tab-id="0_0"><path d="M80 326c0-3.3 2.7-6 6-6h308c3.3 0 6 2.7 6 6v68c0 3.3-2.7 6-6 6H86c-3.3 0-6-2.7-6-6z" stroke="#000" stroke-opacity="0" stroke-width="2" fill="#834187"/><use xlink:href="#a" transform="matrix(1,0,0,1,85,325) translate(15.805555555555543 27)"/><use xlink:href="#b" transform="matrix(1,0,0,1,85,325) translate(94.63888888888889 27)"/><use xlink:href="#c" transform="matrix(1,0,0,1,85,325) translate(136.80555555555554 27)"/><use xlink:href="#d" transform="matrix(1,0,0,1,85,325) translate(157.86111111111111 27)"/><use xlink:href="#e" transform="matrix(1,0,0,1,85,325) translate(180.08333333333334 27)"/><use xlink:href="#f" transform="matrix(1,0,0,1,85,325) translate(258.75 27)"/><use xlink:href="#g" transform="matrix(1,0,0,1,85,325) translate(77.66666666666667 51)"/><use xlink:href="#h" transform="matrix(1,0,0,1,85,325) translate(135.83333333333334 51)"/><path d="M80 426c0-3.3 2.7-6 6-6h308c3.3 0 6 2.7 6 6v70c0 3.3-2.7 6-6 6H86c-3.3 0-6-2.7-6-6z" stroke="#000" stroke-opacity="0" stroke-width="2" fill="#834187"/><use xlink:href="#a" transform="matrix(1,0,0,1,85,425) translate(24.055555555555543 16)"/><use xlink:href="#b" transform="matrix(1,0,0,1,85,425) translate(102.88888888888889 16)"/><use xlink:href="#i" transform="matrix(1,0,0,1,85,425) translate(145.05555555555554 16)"/><use xlink:href="#d" transform="matrix(1,0,0,1,85,425) translate(172.83333333333334 16)"/><use xlink:href="#j" transform="matrix(1,0,0,1,85,425) translate(195.05555555555557 16)"/><use xlink:href="#k" transform="matrix(1,0,0,1,85,425) translate(8.527777777777771 40)"/><use xlink:href="#l" transform="matrix(1,0,0,1,85,425) translate(86.13888888888889 40)"/><use xlink:href="#m" transform="matrix(1,0,0,1,85,425) translate(125.02777777777777 40)"/><use xlink:href="#n" transform="matrix(1,0,0,1,85,425) translate(189.41666666666666 40)"/><use xlink:href="#o" transform="matrix(1,0,0,1,85,425) translate(137.27777777777777 64)"/><path d="M80 526c0-3.3 2.7-6 6-6h308c3.3 0 6 2.7 6 6v70c0 3.3-2.7 6-6 6H86c-3.3 0-6-2.7-6-6z" stroke="#000" stroke-opacity="0" stroke-width="2" fill="#834187"/><use xlink:href="#a" transform="matrix(1,0,0,1,85,525) translate(1.3333333333333428 28)"/><use xlink:href="#p" transform="matrix(1,0,0,1,85,525) translate(80.16666666666669 28)"/><use xlink:href="#q" transform="matrix(1,0,0,1,85,525) translate(155.66666666666669 28)"/><use xlink:href="#r" transform="matrix(1,0,0,1,85,525) translate(172.33333333333334 28)"/><use xlink:href="#s" transform="matrix(1,0,0,1,85,525) translate(261 28)"/><use xlink:href="#t" transform="matrix(1,0,0,1,85,525) translate(292 28)"/><use xlink:href="#u" transform="matrix(1,0,0,1,85,525) translate(54.08333333333334 52)"/><use xlink:href="#v" transform="matrix(1,0,0,1,85,525) translate(87.41666666666667 52)"/><use xlink:href="#w" transform="matrix(1,0,0,1,85,525) translate(183.86111111111111 52)"/><path d="M180 227c0-3.3 2.7-6 6-6h308c3.3 0 6 2.7 6 6v68c0 3.3-2.7 6-6 6H186c-3.3 0-6-2.7-6-6z" stroke="#000" stroke-opacity="0" stroke-width="2" fill="#225798"/><use xlink:href="#x" transform="matrix(1,0,0,1,185,226) translate(15.833333333333314 27)"/><use xlink:href="#y" transform="matrix(1,0,0,1,185,226) translate(63.499999999999986 27)"/><use xlink:href="#q" transform="matrix(1,0,0,1,185,226) translate(143.38888888888886 27)"/><use xlink:href="#z" transform="matrix(1,0,0,1,185,226) translate(160.05555555555554 27)"/><use xlink:href="#A" transform="matrix(1,0,0,1,185,226) translate(239.94444444444446 27)"/><use xlink:href="#l" transform="matrix(1,0,0,1,185,226) translate(54.527777777777786 51)"/><use xlink:href="#B" transform="matrix(1,0,0,1,185,226) translate(93.41666666666667 51)"/><use xlink:href="#C" transform="matrix(1,0,0,1,185,226) translate(153.41666666666669 51)"/><use xlink:href="#D" transform="matrix(1,0,0,1,185,226) translate(197.80555555555554 51)"/><path d="M80 626c0-3.3 2.7-6 6-6h308c3.3 0 6 2.7 6 6v70c0 3.3-2.7 6-6 6H86c-3.3 0-6-2.7-6-6z" stroke="#000" stroke-opacity="0" stroke-width="2" fill="#834187"/><use xlink:href="#a" transform="matrix(1,0,0,1,85,625) translate(7.361111111111114 16)"/><use xlink:href="#E" transform="matrix(1,0,0,1,85,625) translate(86.19444444444446 16)"/><use xlink:href="#F" transform="matrix(1,0,0,1,85,625) translate(145.08333333333334 16)"/><use xlink:href="#G" transform="matrix(1,0,0,1,85,625) translate(178.41666666666669 16)"/><use xlink:href="#H" transform="matrix(1,0,0,1,85,625) translate(248.19444444444446 16)"/><use xlink:href="#I" transform="matrix(1,0,0,1,85,625) translate(274.8611111111111 16)"/><use xlink:href="#J" transform="matrix(1,0,0,1,85,625) translate(40.16666666666667 40)"/><use xlink:href="#K" transform="matrix(1,0,0,1,85,625) translate(84.55555555555556 40)"/><use xlink:href="#L" transform="matrix(1,0,0,1,85,625) translate(152.16666666666669 40)"/><use xlink:href="#t" transform="matrix(1,0,0,1,85,625) translate(253.16666666666669 40)"/><use xlink:href="#M" transform="matrix(1,0,0,1,85,625) translate(35.77777777777777 64)"/><use xlink:href="#u" transform="matrix(1,0,0,1,85,625) translate(126.77777777777777 64)"/><use xlink:href="#r" transform="matrix(1,0,0,1,85,625) translate(160.1111111111111 64)"/><use xlink:href="#N" transform="matrix(1,0,0,1,85,625) translate(248.77777777777777 64)"/><path d="M180 726c0-3.3 2.7-6 6-6h308c3.3 0 6 2.7 6 6v68c0 3.3-2.7 6-6 6H186c-3.3 0-6-2.7-6-6z" stroke="#000" stroke-opacity="0" stroke-width="2" fill="#225798"/><g><use xlink:href="#O" transform="matrix(1,0,0,1,185,725) translate(15.666666666666657 27)"/><use xlink:href="#M" transform="matrix(1,0,0,1,185,725) translate(120 27)"/><use xlink:href="#l" transform="matrix(1,0,0,1,185,725) translate(211 27)"/><use xlink:href="#P" transform="matrix(1,0,0,1,185,725) translate(249.88888888888889 27)"/><use xlink:href="#u" transform="matrix(1,0,0,1,185,725) translate(81.27777777777779 51)"/><use xlink:href="#r" transform="matrix(1,0,0,1,185,725) translate(114.61111111111111 51)"/><use xlink:href="#N" transform="matrix(1,0,0,1,185,725) translate(203.27777777777777 51)"/></g><path d="M180 826c0-3.3 2.7-6 6-6h308c3.3 0 6 2.7 6 6v68c0 3.3-2.7 6-6 6H186c-3.3 0-6-2.7-6-6z" stroke="#000" stroke-opacity="0" stroke-width="2" fill="#225798"/><g><use xlink:href="#Q" transform="matrix(1,0,0,1,185,825) translate(25.138888888888886 27)"/><use xlink:href="#R" transform="matrix(1,0,0,1,185,825) translate(148.25 27)"/><use xlink:href="#m" transform="matrix(1,0,0,1,185,825) translate(203.80555555555557 27)"/><use xlink:href="#t" transform="matrix(1,0,0,1,185,825) translate(268.19444444444446 27)"/><use xlink:href="#S" transform="matrix(1,0,0,1,185,825) translate(54.55555555555556 51)"/><use xlink:href="#T" transform="matrix(1,0,0,1,185,825) translate(121.16666666666667 51)"/><use xlink:href="#U" transform="matrix(1,0,0,1,185,825) translate(185.55555555555554 51)"/></g><path d="M100 926c0-3.3 2.7-6 6-6h308c3.3 0 6 2.7 6 6v68c0 3.3-2.7 6-6 6H106c-3.3 0-6-2.7-6-6z" stroke="#000" stroke-opacity="0" stroke-width="2" fill="#834187"/><g><use xlink:href="#a" transform="matrix(1,0,0,1,105,925) translate(24.666666666666657 27)"/><use xlink:href="#V" transform="matrix(1,0,0,1,105,925) translate(103.5 27)"/><use xlink:href="#W" transform="matrix(1,0,0,1,105,925) translate(175.55555555555557 27)"/><use xlink:href="#R" transform="matrix(1,0,0,1,105,925) translate(42.861111111111114 51)"/><use xlink:href="#d" transform="matrix(1,0,0,1,105,925) translate(98.41666666666667 51)"/><use xlink:href="#X" transform="matrix(1,0,0,1,105,925) translate(120.63888888888889 51)"/><use xlink:href="#Y" transform="matrix(1,0,0,1,105,925) translate(175.02777777777777 51)"/></g><path d="M180 1026c0-3.3 2.7-6 6-6h308c3.3 0 6 2.7 6 6v68c0 3.3-2.7 6-6 6H186c-3.3 0-6-2.7-6-6z" stroke="#000" stroke-opacity="0" stroke-width="2" fill="#225798"/><g><use xlink:href="#Z" transform="matrix(1,0,0,1,185,1025) translate(21.861111111111114 27)"/><use xlink:href="#aa" transform="matrix(1,0,0,1,185,1025) translate(103.97222222222223 27)"/><use xlink:href="#ab" transform="matrix(1,0,0,1,185,1025) translate(138.36111111111111 27)"/><use xlink:href="#H" transform="matrix(1,0,0,1,185,1025) translate(226.0277777777778 27)"/><use xlink:href="#ac" transform="matrix(1,0,0,1,185,1025) translate(252.69444444444446 27)"/><use xlink:href="#ad" transform="matrix(1,0,0,1,185,1025) translate(13.527777777777771 51)"/><use xlink:href="#ae" transform="matrix(1,0,0,1,185,1025) translate(133.36111111111111 51)"/><use xlink:href="#aa" transform="matrix(1,0,0,1,185,1025) translate(174.36111111111111 51)"/><use xlink:href="#af" transform="matrix(1,0,0,1,185,1025) translate(208.75 51)"/></g><path d="M180 109c0-3.3 2.7-6 6-6h308c3.3 0 6 2.7 6 6v47c0 3.3-2.7 6-6 6H186c-3.3 0-6-2.7-6-6z" stroke="#000" stroke-opacity="0" stroke-width="2" fill="#225798"/><g><use xlink:href="#ag" transform="matrix(1,0,0,1,185,108) translate(81.80246913580245 29.38888888888889)"/><use xlink:href="#ah" transform="matrix(1,0,0,1,185,108) translate(142.84567901234567 29.38888888888889)"/></g><path d="M80 26c0-3.3 2.7-6 6-6h308c3.3 0 6 2.7 6 6v51c0 3.3-2.7 6-6 6H86c-3.3 0-6-2.7-6-6z" stroke="#000" stroke-opacity="0" stroke-width="2" fill="#834187"/><g><use xlink:href="#ai" transform="matrix(1,0,0,1,85,25) translate(60.141975308641946 31.38888888888889)"/><use xlink:href="#ah" transform="matrix(1,0,0,1,85,25) translate(164.50617283950618 31.38888888888889)"/></g><path d="M860 66c0-3.3 2.7-6 6-6h308c3.3 0 6 2.7 6 6v48c0 3.3-2.7 6-6 6H866c-3.3 0-6-2.7-6-6z" stroke="#000" stroke-opacity="0" stroke-width="2" fill="#3aa6dd"/><g><use xlink:href="#aj" transform="matrix(1,0,0,1,865,65) translate(99.49074074074073 29.88888888888889)"/></g><path d="M520 66c0-3.3 2.7-6 6-6h308c3.3 0 6 2.7 6 6v47c0 3.3-2.7 6-6 6H526c-3.3 0-6-2.7-6-6z" stroke="#000" stroke-opacity="0" stroke-width="2" fill="#19967d"/><g><use xlink:href="#ak" transform="matrix(1,0,0,1,525,65) translate(91.98765432098764 29.38888888888889)"/></g><path d="M520 226c0-3.3 2.7-6 6-6h308c3.3 0 6 2.7 6 6v70c0 3.3-2.7 6-6 6H526c-3.3 0-6-2.7-6-6z" stroke="#000" stroke-opacity="0" stroke-width="2" fill="#19967d"/><g><use xlink:href="#al" transform="matrix(1,0,0,1,525,225) translate(57.25 28)"/><use xlink:href="#am" transform="matrix(1,0,0,1,525,225) translate(139.6388888888889 28)"/><use xlink:href="#an" transform="matrix(1,0,0,1,525,225) translate(98.94444444444444 52)"/></g><path d="M860 227c0-3.3 2.7-6 6-6h308c3.3 0 6 2.7 6 6v70c0 3.3-2.7 6-6 6H866c-3.3 0-6-2.7-6-6z" stroke="#000" stroke-opacity="0" stroke-width="2" fill="#3aa6dd"/><g><use xlink:href="#al" transform="matrix(1,0,0,1,865,226) translate(11.777777777777771 28)"/><use xlink:href="#ao" transform="matrix(1,0,0,1,865,226) translate(94.16666666666667 28)"/><use xlink:href="#ap" transform="matrix(1,0,0,1,865,226) translate(164.05555555555554 28)"/><use xlink:href="#aq" transform="matrix(1,0,0,1,865,226) translate(220.66666666666666 28)"/><use xlink:href="#f" transform="matrix(1,0,0,1,865,226) translate(262.77777777777777 28)"/><use xlink:href="#ar" transform="matrix(1,0,0,1,865,226) translate(87.36111111111111 52)"/><use xlink:href="#as" transform="matrix(1,0,0,1,865,226) translate(129.52777777777777 52)"/></g><path d="M860 326c0-3.3 2.7-6 6-6h308c3.3 0 6 2.7 6 6v70c0 3.3-2.7 6-6 6H866c-3.3 0-6-2.7-6-6z" stroke="#000" stroke-opacity="0" stroke-width="2" fill="#3aa6dd"/><g><use xlink:href="#x" transform="matrix(1,0,0,1,865,325) translate(45.722222222222214 40)"/><use xlink:href="#at" transform="matrix(1,0,0,1,865,325) translate(93.38888888888889 40)"/><use xlink:href="#au" transform="matrix(1,0,0,1,865,325) translate(186.61111111111114 40)"/></g><path d="M520 326c0-3.3 2.7-6 6-6h308c3.3 0 6 2.7 6 6v70c0 3.3-2.7 6-6 6H526c-3.3 0-6-2.7-6-6z" stroke="#000" stroke-opacity="0" stroke-width="2" fill="#19967d"/><g><use xlink:href="#av" transform="matrix(1,0,0,1,525,325) translate(15.7777777777778 28)"/><use xlink:href="#aw" transform="matrix(1,0,0,1,525,325) translate(119.94444444444447 28)"/><use xlink:href="#ax" transform="matrix(1,0,0,1,525,325) translate(255.38888888888889 28)"/><use xlink:href="#at" transform="matrix(1,0,0,1,525,325) translate(69.55555555555556 52)"/><use xlink:href="#au" transform="matrix(1,0,0,1,525,325) translate(162.77777777777777 52)"/></g><path d="M860 426c0-3.3 2.7-6 6-6h308c3.3 0 6 2.7 6 6v70c0 3.3-2.7 6-6 6H866c-3.3 0-6-2.7-6-6z" stroke="#000" stroke-opacity="0" stroke-width="2" fill="#3aa6dd"/><g><use xlink:href="#ay" transform="matrix(1,0,0,1,865,425) translate(64 40)"/><use xlink:href="#az" transform="matrix(1,0,0,1,865,425) translate(111.72222222222223 40)"/><use xlink:href="#aA" transform="matrix(1,0,0,1,865,425) translate(152.77777777777777 40)"/></g><path d="M520 426c0-3.3 2.7-6 6-6h308c3.3 0 6 2.7 6 6v70c0 3.3-2.7 6-6 6H526c-3.3 0-6-2.7-6-6z" stroke="#000" stroke-opacity="0" stroke-width="2" fill="#19967d"/><g><use xlink:href="#ay" transform="matrix(1,0,0,1,525,425) translate(64 40)"/><use xlink:href="#az" transform="matrix(1,0,0,1,525,425) translate(111.72222222222223 40)"/><use xlink:href="#aA" transform="matrix(1,0,0,1,525,425) translate(152.77777777777777 40)"/></g><path d="M860 526c0-3.3 2.7-6 6-6h308c3.3 0 6 2.7 6 6v70c0 3.3-2.7 6-6 6H866c-3.3 0-6-2.7-6-6z" stroke="#000" stroke-opacity="0" stroke-width="2" fill="#3aa6dd"/><g><use xlink:href="#aB" transform="matrix(1,0,0,1,865,525) translate(68.97222222222221 40)"/><use xlink:href="#aC" transform="matrix(1,0,0,1,865,525) translate(153.36111111111111 40)"/></g><path d="M520 526c0-3.3 2.7-6 6-6h308c3.3 0 6 2.7 6 6v70c0 3.3-2.7 6-6 6H526c-3.3 0-6-2.7-6-6z" stroke="#000" stroke-opacity="0" stroke-width="2" fill="#19967d"/><g><use xlink:href="#aD" transform="matrix(1,0,0,1,525,525) translate(88.38888888888889 40)"/><use xlink:href="#aE" transform="matrix(1,0,0,1,525,525) translate(146.05555555555554 40)"/></g><path d="M860 626c0-3.3 2.7-6 6-6h308c3.3 0 6 2.7 6 6v70c0 3.3-2.7 6-6 6H866c-3.3 0-6-2.7-6-6z" stroke="#000" stroke-opacity="0" stroke-width="2" fill="#3aa6dd"/><g><use xlink:href="#al" transform="matrix(1,0,0,1,865,625) translate(28.888888888888886 40)"/><use xlink:href="#aF" transform="matrix(1,0,0,1,865,625) translate(111.27777777777779 40)"/><use xlink:href="#aC" transform="matrix(1,0,0,1,865,625) translate(193.44444444444446 40)"/></g><path d="M520 626c0-3.3 2.7-6 6-6h308c3.3 0 6 2.7 6 6v70c0 3.3-2.7 6-6 6H526c-3.3 0-6-2.7-6-6z" stroke="#000" stroke-opacity="0" stroke-width="2" fill="#19967d"/><g><use xlink:href="#x" transform="matrix(1,0,0,1,525,625) translate(45.722222222222214 40)"/><use xlink:href="#at" transform="matrix(1,0,0,1,525,625) translate(93.38888888888889 40)"/><use xlink:href="#au" transform="matrix(1,0,0,1,525,625) translate(186.61111111111114 40)"/></g><path d="M860 726c0-3.3 2.7-6 6-6h308c3.3 0 6 2.7 6 6v70c0 3.3-2.7 6-6 6H866c-3.3 0-6-2.7-6-6z" stroke="#000" stroke-opacity="0" stroke-width="2" fill="#3aa6dd"/><g><use xlink:href="#aB" transform="matrix(1,0,0,1,865,725) translate(68.97222222222221 40)"/><use xlink:href="#aC" transform="matrix(1,0,0,1,865,725) translate(153.36111111111111 40)"/></g><path d="M520 726c0-3.3 2.7-6 6-6h308c3.3 0 6 2.7 6 6v70c0 3.3-2.7 6-6 6H526c-3.3 0-6-2.7-6-6z" stroke="#000" stroke-opacity="0" stroke-width="2" fill="#19967d"/><g><use xlink:href="#aB" transform="matrix(1,0,0,1,525,725) translate(75.02777777777777 40)"/><use xlink:href="#aE" transform="matrix(1,0,0,1,525,725) translate(159.41666666666669 40)"/></g><path d="M520 826c0-3.3 2.7-6 6-6h308c3.3 0 6 2.7 6 6v70c0 3.3-2.7 6-6 6H526c-3.3 0-6-2.7-6-6z" stroke="#000" stroke-opacity="0" stroke-width="2" fill="#19967d"/><g><use xlink:href="#aG" transform="matrix(1,0,0,1,525,825) translate(63.472222222222214 40)"/><use xlink:href="#aH" transform="matrix(1,0,0,1,525,825) translate(142.19444444444446 40)"/></g><defs><path fill="#fff" d="M205 0l-28-72H64L36 0H1l101-248h38L239 0h-34zm-38-99l-47-123c-12 45-31 82-46 123h93" id="aI"/><path fill="#fff" d="M59-47c-2 24 18 29 38 22v24C64 9 27 4 27-40v-127H5v-23h24l9-43h21v43h35v23H59v120" id="aJ"/><path fill="#fff" d="M141-36C126-15 110 5 73 4 37 3 15-17 15-53c-1-64 63-63 125-63 3-35-9-54-41-54-24 1-41 7-42 31l-33-3c5-37 33-52 76-52 45 0 72 20 72 64v82c-1 20 7 32 28 27v20c-31 9-61-2-59-35zM48-53c0 20 12 33 32 33 41-3 63-29 60-74-43 2-92-5-92 41" id="aK"/><path fill="#fff" d="M96-169c-40 0-48 33-48 73s9 75 48 75c24 0 41-14 43-38l32 2c-6 37-31 61-74 61-59 0-76-41-82-99-10-93 101-131 147-64 4 7 5 14 7 22l-32 3c-4-21-16-35-41-35" id="aL"/><path fill="#fff" d="M143 0L79-87 56-68V0H24v-261h32v163l83-92h37l-77 82L181 0h-38" id="aM"/><path fill="#fff" d="M100-194c63 0 86 42 84 106H49c0 40 14 67 53 68 26 1 43-12 49-29l28 8c-11 28-37 45-77 45C44 4 14-33 15-96c1-61 26-98 85-98zm52 81c6-60-76-77-97-28-3 7-6 17-6 28h103" id="aN"/><path fill="#fff" d="M114-163C36-179 61-72 57 0H25l-1-190h30c1 12-1 29 2 39 6-27 23-49 58-41v29" id="aO"/><g id="a"><use transform="matrix(0.05555555555555555,0,0,0.05555555555555555,0,0)" xlink:href="#aI"/><use transform="matrix(0.05555555555555555,0,0,0.05555555555555555,13.333333333333332,0)" xlink:href="#aJ"/><use transform="matrix(0.05555555555555555,0,0,0.05555555555555555,18.888888888888886,0)" xlink:href="#aJ"/><use transform="matrix(0.05555555555555555,0,0,0.05555555555555555,24.444444444444443,0)" xlink:href="#aK"/><use transform="matrix(0.05555555555555555,0,0,0.05555555555555555,35.55555555555556,0)" xlink:href="#aL"/><use transform="matrix(0.05555555555555555,0,0,0.05555555555555555,45.55555555555556,0)" xlink:href="#aM"/><use transform="matrix(0.05555555555555555,0,0,0.05555555555555555,55.55555555555556,0)" xlink:href="#aN"/><use transform="matrix(0.05555555555555555,0,0,0.05555555555555555,66.66666666666667,0)" xlink:href="#aO"/></g><path fill="#fff" d="M24 0v-261h32V0H24" id="aP"/><path fill="#fff" d="M100-194c62-1 85 37 85 99 1 63-27 99-86 99S16-35 15-95c0-66 28-99 85-99zM99-20c44 1 53-31 53-75 0-43-8-75-51-75s-53 32-53 75 10 74 51 75" id="aQ"/><path fill="#fff" d="M177-190C167-65 218 103 67 71c-23-6-38-20-44-43l32-5c15 47 100 32 89-28v-30C133-14 115 1 83 1 29 1 15-40 15-95c0-56 16-97 71-98 29-1 48 16 59 35 1-10 0-23 2-32h30zM94-22c36 0 50-32 50-73 0-42-14-75-50-75-39 0-46 34-46 75s6 73 46 73" id="aR"/><path fill="#fff" d="M135-143c-3-34-86-38-87 0 15 53 115 12 119 90S17 21 10-45l28-5c4 36 97 45 98 0-10-56-113-15-118-90-4-57 82-63 122-42 12 7 21 19 24 35" id="aS"/><g id="b"><use transform="matrix(0.05555555555555555,0,0,0.05555555555555555,0,0)" xlink:href="#aP"/><use transform="matrix(0.05555555555555555,0,0,0.05555555555555555,4.388888888888888,0)" xlink:href="#aQ"/><use transform="matrix(0.05555555555555555,0,0,0.05555555555555555,15.5,0)" xlink:href="#aR"/><use transform="matrix(0.05555555555555555,0,0,0.05555555555555555,26.61111111111111,0)" xlink:href="#aS"/></g><path fill="#fff" d="M24-231v-30h32v30H24zM24 0v-190h32V0H24" id="aT"/><path fill="#fff" d="M117-194c89-4 53 116 60 194h-32v-121c0-31-8-49-39-48C34-167 62-67 57 0H25l-1-190h30c1 10-1 24 2 32 11-22 29-35 61-36" id="aU"/><g id="c"><use transform="matrix(0.05555555555555555,0,0,0.05555555555555555,0,0)" xlink:href="#aT"/><use transform="matrix(0.05555555555555555,0,0,0.05555555555555555,4.388888888888888,0)" xlink:href="#aU"/></g><g id="d"><use transform="matrix(0.05555555555555555,0,0,0.05555555555555555,0,0)" xlink:href="#aJ"/><use transform="matrix(0.05555555555555555,0,0,0.05555555555555555,5.555555555555555,0)" xlink:href="#aQ"/></g><path fill="#fff" d="M206 0h-36l-40-164L89 0H53L-1-190h32L70-26l43-164h34l41 164 42-164h31" id="aV"/><path fill="#fff" d="M115-194c53 0 69 39 70 98 0 66-23 100-70 100C84 3 66-7 56-30L54 0H23l1-261h32v101c10-23 28-34 59-34zm-8 174c40 0 45-34 45-75 0-40-5-75-45-74-42 0-51 32-51 76 0 43 10 73 51 73" id="aW"/><path fill="#fff" d="M210-169c-67 3-38 105-44 169h-31v-121c0-29-5-50-35-48C34-165 62-65 56 0H25l-1-190h30c1 10-1 24 2 32 10-44 99-50 107 0 11-21 27-35 58-36 85-2 47 119 55 194h-31v-121c0-29-5-49-35-48" id="aX"/><g id="e"><use transform="matrix(0.05555555555555555,0,0,0.05555555555555555,0,0)" xlink:href="#aV"/><use transform="matrix(0.05555555555555555,0,0,0.05555555555555555,14.388888888888888,0)" xlink:href="#aN"/><use transform="matrix(0.05555555555555555,0,0,0.05555555555555555,25.5,0)" xlink:href="#aW"/><use transform="matrix(0.05555555555555555,0,0,0.05555555555555555,36.611111111111114,0)" xlink:href="#aX"/><use transform="matrix(0.05555555555555555,0,0,0.05555555555555555,53.22222222222223,0)" xlink:href="#aK"/><use transform="matrix(0.05555555555555555,0,0,0.05555555555555555,64.33333333333334,0)" xlink:href="#aT"/><use transform="matrix(0.05555555555555555,0,0,0.05555555555555555,68.72222222222223,0)" xlink:href="#aP"/></g><path fill="#fff" d="M106-169C34-169 62-67 57 0H25v-261h32l-1 103c12-21 28-36 61-36 89 0 53 116 60 194h-32v-121c2-32-8-49-39-48" id="aY"/><g id="f"><use transform="matrix(0.05555555555555555,0,0,0.05555555555555555,0,0)" xlink:href="#aV"/><use transform="matrix(0.05555555555555555,0,0,0.05555555555555555,14.388888888888888,0)" xlink:href="#aT"/><use transform="matrix(0.05555555555555555,0,0,0.05555555555555555,18.777777777777775,0)" xlink:href="#aJ"/><use transform="matrix(0.05555555555555555,0,0,0.05555555555555555,24.33333333333333,0)" xlink:href="#aY"/></g><path fill="#fff" d="M84 4C-5 8 30-112 23-190h32v120c0 31 7 50 39 49 72-2 45-101 50-169h31l1 190h-30c-1-10 1-25-2-33-11 22-28 36-60 37" id="aZ"/><path fill="#fff" d="M47-170H22l-4-78h33" id="ba"/><g id="g"><use transform="matrix(0.05555555555555555,0,0,0.05555555555555555,0,0)" xlink:href="#aZ"/><use transform="matrix(0.05555555555555555,0,0,0.05555555555555555,11.11111111111111,0)" xlink:href="#aS"/><use transform="matrix(0.05555555555555555,0,0,0.05555555555555555,21.11111111111111,0)" xlink:href="#aN"/><use transform="matrix(0.05555555555555555,0,0,0.05555555555555555,32.22222222222222,0)" xlink:href="#aO"/><use transform="matrix(0.05555555555555555,0,0,0.05555555555555555,38.83333333333333,0)" xlink:href="#ba"/><use transform="matrix(0.05555555555555555,0,0,0.05555555555555555,42.61111111111111,0)" xlink:href="#aS"/></g><path fill="#fff" d="M85-194c31 0 48 13 60 33l-1-100h32l1 261h-30c-2-10 0-23-3-31C134-8 116 4 85 4 32 4 16-35 15-94c0-66 23-100 70-100zm9 24c-40 0-46 34-46 75 0 40 6 74 45 74 42 0 51-32 51-76 0-42-9-74-50-73" id="bb"/><g id="h"><use transform="matrix(0.05555555555555555,0,0,0.05555555555555555,0,0)" xlink:href="#aL"/><use transform="matrix(0.05555555555555555,0,0,0.05555555555555555,10,0)" xlink:href="#aO"/><use transform="matrix(0.05555555555555555,0,0,0.05555555555555555,16.61111111111111,0)" xlink:href="#aN"/><use transform="matrix(0.05555555555555555,0,0,0.05555555555555555,27.72222222222222,0)" xlink:href="#bb"/><use transform="matrix(0.05555555555555555,0,0,0.05555555555555555,38.83333333333333,0)" xlink:href="#aN"/><use transform="matrix(0.05555555555555555,0,0,0.05555555555555555,49.94444444444444,0)" xlink:href="#aU"/><use transform="matrix(0.05555555555555555,0,0,0.05555555555555555,61.05555555555555,0)" xlink:href="#aJ"/><use transform="matrix(0.05555555555555555,0,0,0.05555555555555555,66.61111111111111,0)" xlink:href="#aT"/><use transform="matrix(0.05555555555555555,0,0,0.05555555555555555,71,0)" xlink:href="#aK"/><use transform="matrix(0.05555555555555555,0,0,0.05555555555555555,82.11111111111111,0)" xlink:href="#aP"/><use transform="matrix(0.05555555555555555,0,0,0.05555555555555555,86.5,0)" xlink:href="#aS"/></g><g id="i"><use transform="matrix(0.05555555555555555,0,0,0.05555555555555555,0,0)" xlink:href="#aQ"/><use transform="matrix(0.05555555555555555,0,0,0.05555555555555555,11.11111111111111,0)" xlink:href="#aU"/></g><path fill="#fff" d="M101-234c-31-9-42 10-38 44h38v23H63V0H32v-167H5v-23h27c-7-52 17-82 69-68v24" id="bc"/><g id="j"><use transform="matrix(0.05555555555555555,0,0,0.05555555555555555,0,0)" xlink:href="#bc"/><use transform="matrix(0.05555555555555555,0,0,0.05555555555555555,5.555555555555555,0)" xlink:href="#aT"/><use transform="matrix(0.05555555555555555,0,0,0.05555555555555555,9.944444444444443,0)" xlink:href="#aP"/><use transform="matrix(0.05555555555555555,0,0,0.05555555555555555,14.333333333333332,0)" xlink:href="#aN"/><use transform="matrix(0.05555555555555555,0,0,0.05555555555555555,25.444444444444443,0)" xlink:href="#aS"/><use transform="matrix(0.05555555555555555,0,0,0.05555555555555555,35.44444444444444,0)" xlink:href="#aY"/><use transform="matrix(0.05555555555555555,0,0,0.05555555555555555,46.55555555555556,0)" xlink:href="#aK"/><use transform="matrix(0.05555555555555555,0,0,0.05555555555555555,57.66666666666668,0)" xlink:href="#aO"/><use transform="matrix(0.05555555555555555,0,0,0.05555555555555555,64.27777777777779,0)" xlink:href="#aT"/><use transform="matrix(0.05555555555555555,0,0,0.05555555555555555,68.66666666666667,0)" xlink:href="#aU"/><use transform="matrix(0.05555555555555555,0,0,0.05555555555555555,79.77777777777779,0)" xlink:href="#aR"/></g><path fill="#fff" d="M115-194c55 1 70 41 70 98S169 2 115 4C84 4 66-9 55-30l1 105H24l-1-265h31l2 30c10-21 28-34 59-34zm-8 174c40 0 45-34 45-75s-6-73-45-74c-42 0-51 32-51 76 0 43 10 73 51 73" id="bd"/><g id="k"><use transform="matrix(0.05555555555555555,0,0,0.05555555555555555,0,0)" xlink:href="#bd"/><use transform="matrix(0.05555555555555555,0,0,0.05555555555555555,11.11111111111111,0)" xlink:href="#aP"/><use transform="matrix(0.05555555555555555,0,0,0.05555555555555555,15.5,0)" xlink:href="#aK"/><use transform="matrix(0.05555555555555555,0,0,0.05555555555555555,26.61111111111111,0)" xlink:href="#aJ"/><use transform="matrix(0.05555555555555555,0,0,0.05555555555555555,32.166666666666664,0)" xlink:href="#bc"/><use transform="matrix(0.05555555555555555,0,0,0.05555555555555555,37.72222222222222,0)" xlink:href="#aQ"/><use transform="matrix(0.05555555555555555,0,0,0.05555555555555555,48.83333333333333,0)" xlink:href="#aO"/><use transform="matrix(0.05555555555555555,0,0,0.05555555555555555,55.44444444444444,0)" xlink:href="#aX"/></g><g id="l"><use transform="matrix(0.05555555555555555,0,0,0.05555555555555555,0,0)" xlink:href="#aK"/><use transform="matrix(0.05555555555555555,0,0,0.05555555555555555,11.11111111111111,0)" xlink:href="#aU"/><use transform="matrix(0.05555555555555555,0,0,0.05555555555555555,22.22222222222222,0)" xlink:href="#bb"/></g><g id="m"><use transform="matrix(0.05555555555555555,0,0,0.05555555555555555,0,0)" xlink:href="#aW"/><use transform="matrix(0.05555555555555555,0,0,0.05555555555555555,11.11111111111111,0)" xlink:href="#aN"/><use transform="matrix(0.05555555555555555,0,0,0.05555555555555555,22.22222222222222,0)" xlink:href="#aR"/><use transform="matrix(0.05555555555555555,0,0,0.05555555555555555,33.33333333333333,0)" xlink:href="#aT"/><use transform="matrix(0.05555555555555555,0,0,0.05555555555555555,37.722222222222214,0)" xlink:href="#aU"/><use transform="matrix(0.05555555555555555,0,0,0.05555555555555555,48.83333333333333,0)" xlink:href="#aS"/></g><g id="n"><use transform="matrix(0.05555555555555555,0,0,0.05555555555555555,0,0)" xlink:href="#bb"/><use transform="matrix(0.05555555555555555,0,0,0.05555555555555555,11.11111111111111,0)" xlink:href="#aQ"/><use transform="matrix(0.05555555555555555,0,0,0.05555555555555555,22.22222222222222,0)" xlink:href="#aV"/><use transform="matrix(0.05555555555555555,0,0,0.05555555555555555,36.61111111111111,0)" xlink:href="#aU"/><use transform="matrix(0.05555555555555555,0,0,0.05555555555555555,47.722222222222214,0)" xlink:href="#aP"/><use transform="matrix(0.05555555555555555,0,0,0.05555555555555555,52.1111111111111,0)" xlink:href="#aQ"/><use transform="matrix(0.05555555555555555,0,0,0.05555555555555555,63.22222222222222,0)" xlink:href="#aK"/><use transform="matrix(0.05555555555555555,0,0,0.05555555555555555,74.33333333333333,0)" xlink:href="#bb"/><use transform="matrix(0.05555555555555555,0,0,0.05555555555555555,85.44444444444444,0)" xlink:href="#aT"/><use transform="matrix(0.05555555555555555,0,0,0.05555555555555555,89.83333333333333,0)" xlink:href="#aU"/><use transform="matrix(0.05555555555555555,0,0,0.05555555555555555,100.94444444444444,0)" xlink:href="#aR"/></g><g id="o"><use transform="matrix(0.05555555555555555,0,0,0.05555555555555555,0,0)" xlink:href="#bc"/><use transform="matrix(0.05555555555555555,0,0,0.05555555555555555,5.555555555555555,0)" xlink:href="#aT"/><use transform="matrix(0.05555555555555555,0,0,0.05555555555555555,9.944444444444443,0)" xlink:href="#aP"/><use transform="matrix(0.05555555555555555,0,0,0.05555555555555555,14.333333333333332,0)" xlink:href="#aN"/><use transform="matrix(0.05555555555555555,0,0,0.05555555555555555,25.444444444444443,0)" xlink:href="#aS"/></g><g id="p"><use transform="matrix(0.05555555555555555,0,0,0.05555555555555555,0,0)" xlink:href="#aZ"/><use transform="matrix(0.05555555555555555,0,0,0.05555555555555555,11.11111111111111,0)" xlink:href="#bd"/><use transform="matrix(0.05555555555555555,0,0,0.05555555555555555,22.22222222222222,0)" xlink:href="#aP"/><use transform="matrix(0.05555555555555555,0,0,0.05555555555555555,26.61111111111111,0)" xlink:href="#aQ"/><use transform="matrix(0.05555555555555555,0,0,0.05555555555555555,37.72222222222222,0)" xlink:href="#aK"/><use transform="matrix(0.05555555555555555,0,0,0.05555555555555555,48.83333333333333,0)" xlink:href="#bb"/><use transform="matrix(0.05555555555555555,0,0,0.05555555555555555,59.94444444444444,0)" xlink:href="#aS"/></g><use transform="matrix(0.05555555555555555,0,0,0.05555555555555555,0,0)" xlink:href="#aK" id="q"/><g id="r"><use transform="matrix(0.05555555555555555,0,0,0.05555555555555555,0,0)" xlink:href="#aX"/><use transform="matrix(0.05555555555555555,0,0,0.05555555555555555,16.61111111111111,0)" xlink:href="#aK"/><use transform="matrix(0.05555555555555555,0,0,0.05555555555555555,27.72222222222222,0)" xlink:href="#aP"/><use transform="matrix(0.05555555555555555,0,0,0.05555555555555555,32.11111111111111,0)" xlink:href="#aT"/><use transform="matrix(0.05555555555555555,0,0,0.05555555555555555,36.49999999999999,0)" xlink:href="#aL"/><use transform="matrix(0.05555555555555555,0,0,0.05555555555555555,46.49999999999999,0)" xlink:href="#aT"/><use transform="matrix(0.05555555555555555,0,0,0.05555555555555555,50.88888888888888,0)" xlink:href="#aQ"/><use transform="matrix(0.05555555555555555,0,0,0.05555555555555555,61.999999999999986,0)" xlink:href="#aZ"/><use transform="matrix(0.05555555555555555,0,0,0.05555555555555555,73.1111111111111,0)" xlink:href="#aS"/></g><g id="s"><use transform="matrix(0.05555555555555555,0,0,0.05555555555555555,0,0)" xlink:href="#bc"/><use transform="matrix(0.05555555555555555,0,0,0.05555555555555555,5.555555555555555,0)" xlink:href="#aT"/><use transform="matrix(0.05555555555555555,0,0,0.05555555555555555,9.944444444444443,0)" xlink:href="#aP"/><use transform="matrix(0.05555555555555555,0,0,0.05555555555555555,14.333333333333332,0)" xlink:href="#aN"/></g><g id="t"><use transform="matrix(0.05555555555555555,0,0,0.05555555555555555,0,0)" xlink:href="#aJ"/><use transform="matrix(0.05555555555555555,0,0,0.05555555555555555,5.555555555555555,0)" xlink:href="#aQ"/></g><g id="u"><use transform="matrix(0.05555555555555555,0,0,0.05555555555555555,0,0)" xlink:href="#aJ"/><use transform="matrix(0.05555555555555555,0,0,0.05555555555555555,5.555555555555555,0)" xlink:href="#aY"/><use transform="matrix(0.05555555555555555,0,0,0.05555555555555555,16.666666666666664,0)" xlink:href="#aN"/></g><g id="v"><use transform="matrix(0.05555555555555555,0,0,0.05555555555555555,0,0)" xlink:href="#bc"/><use transform="matrix(0.05555555555555555,0,0,0.05555555555555555,5.555555555555555,0)" xlink:href="#aT"/><use transform="matrix(0.05555555555555555,0,0,0.05555555555555555,9.944444444444443,0)" xlink:href="#aP"/><use transform="matrix(0.05555555555555555,0,0,0.05555555555555555,14.333333333333332,0)" xlink:href="#aN"/><use transform="matrix(0.05555555555555555,0,0,0.05555555555555555,25.444444444444443,0)" xlink:href="#aS"/><use transform="matrix(0.05555555555555555,0,0,0.05555555555555555,35.44444444444444,0)" xlink:href="#aY"/><use transform="matrix(0.05555555555555555,0,0,0.05555555555555555,46.55555555555556,0)" xlink:href="#aK"/><use transform="matrix(0.05555555555555555,0,0,0.05555555555555555,57.66666666666668,0)" xlink:href="#aO"/><use transform="matrix(0.05555555555555555,0,0,0.05555555555555555,64.27777777777779,0)" xlink:href="#aT"/><use transform="matrix(0.05555555555555555,0,0,0.05555555555555555,68.66666666666667,0)" xlink:href="#aU"/><use transform="matrix(0.05555555555555555,0,0,0.05555555555555555,79.77777777777779,0)" xlink:href="#aR"/></g><g id="w"><use transform="matrix(0.05555555555555555,0,0,0.05555555555555555,0,0)" xlink:href="#bd"/><use transform="matrix(0.05555555555555555,0,0,0.05555555555555555,11.11111111111111,0)" xlink:href="#aP"/><use transform="matrix(0.05555555555555555,0,0,0.05555555555555555,15.5,0)" xlink:href="#aK"/><use transform="matrix(0.05555555555555555,0,0,0.05555555555555555,26.61111111111111,0)" xlink:href="#aJ"/><use transform="matrix(0.05555555555555555,0,0,0.05555555555555555,32.166666666666664,0)" xlink:href="#bc"/><use transform="matrix(0.05555555555555555,0,0,0.05555555555555555,37.72222222222222,0)" xlink:href="#aQ"/><use transform="matrix(0.05555555555555555,0,0,0.05555555555555555,48.83333333333333,0)" xlink:href="#aO"/><use transform="matrix(0.05555555555555555,0,0,0.05555555555555555,55.44444444444444,0)" xlink:href="#aX"/></g><path fill="#fff" d="M232-93c-1 65-40 97-104 97C67 4 28-28 28-90v-158h33c8 89-33 224 67 224 102 0 64-133 71-224h33v155" id="be"/><g id="x"><use transform="matrix(0.05555555555555555,0,0,0.05555555555555555,0,0)" xlink:href="#be"/><use transform="matrix(0.05555555555555555,0,0,0.05555555555555555,14.388888888888888,0)" xlink:href="#aS"/><use transform="matrix(0.05555555555555555,0,0,0.05555555555555555,24.388888888888886,0)" xlink:href="#aN"/><use transform="matrix(0.05555555555555555,0,0,0.05555555555555555,35.5,0)" xlink:href="#aO"/></g><path fill="#fff" d="M108 0H70L1-190h34L89-25l56-165h34" id="bf"/><g id="y"><use transform="matrix(0.05555555555555555,0,0,0.05555555555555555,0,0)" xlink:href="#aO"/><use transform="matrix(0.05555555555555555,0,0,0.05555555555555555,6.611111111111111,0)" xlink:href="#aN"/><use transform="matrix(0.05555555555555555,0,0,0.05555555555555555,17.72222222222222,0)" xlink:href="#aL"/><use transform="matrix(0.05555555555555555,0,0,0.05555555555555555,27.72222222222222,0)" xlink:href="#aN"/><use transform="matrix(0.05555555555555555,0,0,0.05555555555555555,38.83333333333333,0)" xlink:href="#aT"/><use transform="matrix(0.05555555555555555,0,0,0.05555555555555555,43.222222222222214,0)" xlink:href="#bf"/><use transform="matrix(0.05555555555555555,0,0,0.05555555555555555,53.222222222222214,0)" xlink:href="#aN"/><use transform="matrix(0.05555555555555555,0,0,0.05555555555555555,64.33333333333333,0)" xlink:href="#aS"/></g><g id="z"><use transform="matrix(0.05555555555555555,0,0,0.05555555555555555,0,0)" xlink:href="#bd"/><use transform="matrix(0.05555555555555555,0,0,0.05555555555555555,11.11111111111111,0)" xlink:href="#aY"/><use transform="matrix(0.05555555555555555,0,0,0.05555555555555555,22.22222222222222,0)" xlink:href="#aT"/><use transform="matrix(0.05555555555555555,0,0,0.05555555555555555,26.61111111111111,0)" xlink:href="#aS"/><use transform="matrix(0.05555555555555555,0,0,0.05555555555555555,36.611111111111114,0)" xlink:href="#aY"/><use transform="matrix(0.05555555555555555,0,0,0.05555555555555555,47.72222222222223,0)" xlink:href="#aT"/><use transform="matrix(0.05555555555555555,0,0,0.05555555555555555,52.111111111111114,0)" xlink:href="#aU"/><use transform="matrix(0.05555555555555555,0,0,0.05555555555555555,63.22222222222223,0)" xlink:href="#aR"/></g><path fill="#fff" d="M16-82v-28h88v28H16" id="bg"/><g id="A"><use transform="matrix(0.05555555555555555,0,0,0.05555555555555555,0,0)" xlink:href="#aN"/><use transform="matrix(0.05555555555555555,0,0,0.05555555555555555,11.11111111111111,0)" xlink:href="#bg"/><use transform="matrix(0.05555555555555555,0,0,0.05555555555555555,17.72222222222222,0)" xlink:href="#aX"/><use transform="matrix(0.05555555555555555,0,0,0.05555555555555555,34.33333333333333,0)" xlink:href="#aK"/><use transform="matrix(0.05555555555555555,0,0,0.05555555555555555,45.44444444444444,0)" xlink:href="#aT"/><use transform="matrix(0.05555555555555555,0,0,0.05555555555555555,49.83333333333333,0)" xlink:href="#aP"/></g><g id="B"><use transform="matrix(0.05555555555555555,0,0,0.05555555555555555,0,0)" xlink:href="#aY"/><use transform="matrix(0.05555555555555555,0,0,0.05555555555555555,11.11111111111111,0)" xlink:href="#aK"/><use transform="matrix(0.05555555555555555,0,0,0.05555555555555555,22.22222222222222,0)" xlink:href="#aU"/><use transform="matrix(0.05555555555555555,0,0,0.05555555555555555,33.33333333333333,0)" xlink:href="#bb"/><use transform="matrix(0.05555555555555555,0,0,0.05555555555555555,44.44444444444444,0)" xlink:href="#aS"/></g><g id="C"><use transform="matrix(0.05555555555555555,0,0,0.05555555555555555,0,0)" xlink:href="#aQ"/><use transform="matrix(0.05555555555555555,0,0,0.05555555555555555,11.11111111111111,0)" xlink:href="#bf"/><use transform="matrix(0.05555555555555555,0,0,0.05555555555555555,21.11111111111111,0)" xlink:href="#aN"/><use transform="matrix(0.05555555555555555,0,0,0.05555555555555555,32.22222222222222,0)" xlink:href="#aO"/></g><g id="D"><use transform="matrix(0.05555555555555555,0,0,0.05555555555555555,0,0)" xlink:href="#bb"/><use transform="matrix(0.05555555555555555,0,0,0.05555555555555555,11.11111111111111,0)" xlink:href="#aN"/><use transform="matrix(0.05555555555555555,0,0,0.05555555555555555,22.22222222222222,0)" xlink:href="#aJ"/><use transform="matrix(0.05555555555555555,0,0,0.05555555555555555,27.77777777777778,0)" xlink:href="#aK"/><use transform="matrix(0.05555555555555555,0,0,0.05555555555555555,38.888888888888886,0)" xlink:href="#aT"/><use transform="matrix(0.05555555555555555,0,0,0.05555555555555555,43.27777777777777,0)" xlink:href="#aP"/><use transform="matrix(0.05555555555555555,0,0,0.05555555555555555,47.66666666666666,0)" xlink:href="#aS"/></g><g id="E"><use transform="matrix(0.05555555555555555,0,0,0.05555555555555555,0,0)" xlink:href="#aS"/><use transform="matrix(0.05555555555555555,0,0,0.05555555555555555,10,0)" xlink:href="#aN"/><use transform="matrix(0.05555555555555555,0,0,0.05555555555555555,21.11111111111111,0)" xlink:href="#aU"/><use transform="matrix(0.05555555555555555,0,0,0.05555555555555555,32.22222222222222,0)" xlink:href="#bb"/><use transform="matrix(0.05555555555555555,0,0,0.05555555555555555,43.33333333333333,0)" xlink:href="#aS"/></g><g id="F"><use transform="matrix(0.05555555555555555,0,0,0.05555555555555555,0,0)" xlink:href="#aQ"/><use transform="matrix(0.05555555555555555,0,0,0.05555555555555555,11.11111111111111,0)" xlink:href="#aZ"/><use transform="matrix(0.05555555555555555,0,0,0.05555555555555555,22.22222222222222,0)" xlink:href="#aJ"/></g><g id="G"><use transform="matrix(0.05555555555555555,0,0,0.05555555555555555,0,0)" xlink:href="#aN"/><use transform="matrix(0.05555555555555555,0,0,0.05555555555555555,11.11111111111111,0)" xlink:href="#bg"/><use transform="matrix(0.05555555555555555,0,0,0.05555555555555555,17.72222222222222,0)" xlink:href="#aX"/><use transform="matrix(0.05555555555555555,0,0,0.05555555555555555,34.33333333333333,0)" xlink:href="#aK"/><use transform="matrix(0.05555555555555555,0,0,0.05555555555555555,45.44444444444444,0)" xlink:href="#aT"/><use transform="matrix(0.05555555555555555,0,0,0.05555555555555555,49.83333333333333,0)" xlink:href="#aP"/><use transform="matrix(0.05555555555555555,0,0,0.05555555555555555,54.222222222222214,0)" xlink:href="#aS"/></g><g id="H"><use transform="matrix(0.05555555555555555,0,0,0.05555555555555555,0,0)" xlink:href="#aK"/><use transform="matrix(0.05555555555555555,0,0,0.05555555555555555,11.11111111111111,0)" xlink:href="#aS"/></g><g id="I"><use transform="matrix(0.05555555555555555,0,0,0.05555555555555555,0,0)" xlink:href="#aJ"/><use transform="matrix(0.05555555555555555,0,0,0.05555555555555555,5.555555555555555,0)" xlink:href="#aY"/><use transform="matrix(0.05555555555555555,0,0,0.05555555555555555,16.666666666666664,0)" xlink:href="#aN"/></g><g id="J"><use transform="matrix(0.05555555555555555,0,0,0.05555555555555555,0,0)" xlink:href="#aZ"/><use transform="matrix(0.05555555555555555,0,0,0.05555555555555555,11.11111111111111,0)" xlink:href="#aS"/><use transform="matrix(0.05555555555555555,0,0,0.05555555555555555,21.11111111111111,0)" xlink:href="#aN"/><use transform="matrix(0.05555555555555555,0,0,0.05555555555555555,32.22222222222222,0)" xlink:href="#aO"/></g><g id="K"><use transform="matrix(0.05555555555555555,0,0,0.05555555555555555,0,0)" xlink:href="#aT"/><use transform="matrix(0.05555555555555555,0,0,0.05555555555555555,4.388888888888888,0)" xlink:href="#aU"/><use transform="matrix(0.05555555555555555,0,0,0.05555555555555555,15.5,0)" xlink:href="#bf"/><use transform="matrix(0.05555555555555555,0,0,0.05555555555555555,25.5,0)" xlink:href="#aT"/><use transform="matrix(0.05555555555555555,0,0,0.05555555555555555,29.888888888888886,0)" xlink:href="#aJ"/><use transform="matrix(0.05555555555555555,0,0,0.05555555555555555,35.44444444444444,0)" xlink:href="#aT"/><use transform="matrix(0.05555555555555555,0,0,0.05555555555555555,39.83333333333333,0)" xlink:href="#aU"/><use transform="matrix(0.05555555555555555,0,0,0.05555555555555555,50.94444444444444,0)" xlink:href="#aR"/></g><g id="L"><use transform="matrix(0.05555555555555555,0,0,0.05555555555555555,0,0)" xlink:href="#aL"/><use transform="matrix(0.05555555555555555,0,0,0.05555555555555555,10,0)" xlink:href="#aQ"/><use transform="matrix(0.05555555555555555,0,0,0.05555555555555555,21.11111111111111,0)" xlink:href="#aP"/><use transform="matrix(0.05555555555555555,0,0,0.05555555555555555,25.5,0)" xlink:href="#aP"/><use transform="matrix(0.05555555555555555,0,0,0.05555555555555555,29.888888888888886,0)" xlink:href="#aN"/><use transform="matrix(0.05555555555555555,0,0,0.05555555555555555,41,0)" xlink:href="#aK"/><use transform="matrix(0.05555555555555555,0,0,0.05555555555555555,52.111111111111114,0)" xlink:href="#aR"/><use transform="matrix(0.05555555555555555,0,0,0.05555555555555555,63.22222222222223,0)" xlink:href="#aZ"/><use transform="matrix(0.05555555555555555,0,0,0.05555555555555555,74.33333333333334,0)" xlink:href="#aN"/><use transform="matrix(0.05555555555555555,0,0,0.05555555555555555,85.44444444444446,0)" xlink:href="#aS"/></g><g id="M"><use transform="matrix(0.05555555555555555,0,0,0.05555555555555555,0,0)" xlink:href="#bb"/><use transform="matrix(0.05555555555555555,0,0,0.05555555555555555,11.11111111111111,0)" xlink:href="#aQ"/><use transform="matrix(0.05555555555555555,0,0,0.05555555555555555,22.22222222222222,0)" xlink:href="#aV"/><use transform="matrix(0.05555555555555555,0,0,0.05555555555555555,36.61111111111111,0)" xlink:href="#aU"/><use transform="matrix(0.05555555555555555,0,0,0.05555555555555555,47.722222222222214,0)" xlink:href="#aP"/><use transform="matrix(0.05555555555555555,0,0,0.05555555555555555,52.1111111111111,0)" xlink:href="#aQ"/><use transform="matrix(0.05555555555555555,0,0,0.05555555555555555,63.22222222222222,0)" xlink:href="#aK"/><use transform="matrix(0.05555555555555555,0,0,0.05555555555555555,74.33333333333333,0)" xlink:href="#bb"/></g><g id="N"><use transform="matrix(0.05555555555555555,0,0,0.05555555555555555,0,0)" xlink:href="#bc"/><use transform="matrix(0.05555555555555555,0,0,0.05555555555555555,5.555555555555555,0)" xlink:href="#aT"/><use transform="matrix(0.05555555555555555,0,0,0.05555555555555555,9.944444444444443,0)" xlink:href="#aP"/><use transform="matrix(0.05555555555555555,0,0,0.05555555555555555,14.333333333333332,0)" xlink:href="#aN"/></g><path fill="#fff" d="M30 0v-248h187v28H63v79h144v27H63v87h162V0H30" id="bh"/><path fill="#fff" d="M179-190L93 31C79 59 56 82 12 73V49c39 6 53-20 64-50L1-190h34L92-34l54-156h33" id="bi"/><g id="O"><use transform="matrix(0.05555555555555555,0,0,0.05555555555555555,0,0)" xlink:href="#bh"/><use transform="matrix(0.05555555555555555,0,0,0.05555555555555555,13.333333333333332,0)" xlink:href="#aX"/><use transform="matrix(0.05555555555555555,0,0,0.05555555555555555,29.944444444444443,0)" xlink:href="#bd"/><use transform="matrix(0.05555555555555555,0,0,0.05555555555555555,41.05555555555556,0)" xlink:href="#aP"/><use transform="matrix(0.05555555555555555,0,0,0.05555555555555555,45.44444444444444,0)" xlink:href="#aQ"/><use transform="matrix(0.05555555555555555,0,0,0.05555555555555555,56.55555555555556,0)" xlink:href="#bi"/><use transform="matrix(0.05555555555555555,0,0,0.05555555555555555,66.55555555555556,0)" xlink:href="#aN"/><use transform="matrix(0.05555555555555555,0,0,0.05555555555555555,77.66666666666667,0)" xlink:href="#aN"/><use transform="matrix(0.05555555555555555,0,0,0.05555555555555555,88.77777777777779,0)" xlink:href="#aS"/></g><g id="P"><use transform="matrix(0.05555555555555555,0,0,0.05555555555555555,0,0)" xlink:href="#aQ"/><use transform="matrix(0.05555555555555555,0,0,0.05555555555555555,11.11111111111111,0)" xlink:href="#bd"/><use transform="matrix(0.05555555555555555,0,0,0.05555555555555555,22.22222222222222,0)" xlink:href="#aN"/><use transform="matrix(0.05555555555555555,0,0,0.05555555555555555,33.33333333333333,0)" xlink:href="#aU"/></g><path fill="#fff" d="M233-177c-1 41-23 64-60 70L243 0h-38l-65-103H63V0H30v-248c88 3 205-21 203 71zM63-129c60-2 137 13 137-47 0-61-80-42-137-45v92" id="bj"/><g id="Q"><use transform="matrix(0.05555555555555555,0,0,0.05555555555555555,0,0)" xlink:href="#bj"/><use transform="matrix(0.05555555555555555,0,0,0.05555555555555555,14.388888888888888,0)" xlink:href="#aK"/><use transform="matrix(0.05555555555555555,0,0,0.05555555555555555,25.5,0)" xlink:href="#aU"/><use transform="matrix(0.05555555555555555,0,0,0.05555555555555555,36.611111111111114,0)" xlink:href="#aS"/><use transform="matrix(0.05555555555555555,0,0,0.05555555555555555,46.611111111111114,0)" xlink:href="#aQ"/><use transform="matrix(0.05555555555555555,0,0,0.05555555555555555,57.72222222222223,0)" xlink:href="#aX"/><use transform="matrix(0.05555555555555555,0,0,0.05555555555555555,74.33333333333334,0)" xlink:href="#aV"/><use transform="matrix(0.05555555555555555,0,0,0.05555555555555555,88.72222222222223,0)" xlink:href="#aK"/><use transform="matrix(0.05555555555555555,0,0,0.05555555555555555,99.83333333333334,0)" xlink:href="#aO"/><use transform="matrix(0.05555555555555555,0,0,0.05555555555555555,106.44444444444446,0)" xlink:href="#aN"/></g><g id="R"><use transform="matrix(0.05555555555555555,0,0,0.05555555555555555,0,0)" xlink:href="#aK"/><use transform="matrix(0.05555555555555555,0,0,0.05555555555555555,11.11111111111111,0)" xlink:href="#aR"/><use transform="matrix(0.05555555555555555,0,0,0.05555555555555555,22.22222222222222,0)" xlink:href="#aN"/><use transform="matrix(0.05555555555555555,0,0,0.05555555555555555,33.33333333333333,0)" xlink:href="#aU"/><use transform="matrix(0.05555555555555555,0,0,0.05555555555555555,44.44444444444444,0)" xlink:href="#aJ"/></g><g id="S"><use transform="matrix(0.05555555555555555,0,0,0.05555555555555555,0,0)" xlink:href="#aS"/><use transform="matrix(0.05555555555555555,0,0,0.05555555555555555,10,0)" xlink:href="#bd"/><use transform="matrix(0.05555555555555555,0,0,0.05555555555555555,21.11111111111111,0)" xlink:href="#aO"/><use transform="matrix(0.05555555555555555,0,0,0.05555555555555555,27.72222222222222,0)" xlink:href="#aN"/><use transform="matrix(0.05555555555555555,0,0,0.05555555555555555,38.83333333333333,0)" xlink:href="#aK"/><use transform="matrix(0.05555555555555555,0,0,0.05555555555555555,49.94444444444444,0)" xlink:href="#bb"/></g><g id="T"><use transform="matrix(0.05555555555555555,0,0,0.05555555555555555,0,0)" xlink:href="#aK"/><use transform="matrix(0.05555555555555555,0,0,0.05555555555555555,11.11111111111111,0)" xlink:href="#aL"/><use transform="matrix(0.05555555555555555,0,0,0.05555555555555555,21.11111111111111,0)" xlink:href="#aO"/><use transform="matrix(0.05555555555555555,0,0,0.05555555555555555,27.72222222222222,0)" xlink:href="#aQ"/><use transform="matrix(0.05555555555555555,0,0,0.05555555555555555,38.83333333333333,0)" xlink:href="#aS"/><use transform="matrix(0.05555555555555555,0,0,0.05555555555555555,48.83333333333333,0)" xlink:href="#aS"/></g><g id="U"><use transform="matrix(0.05555555555555555,0,0,0.05555555555555555,0,0)" xlink:href="#aU"/><use transform="matrix(0.05555555555555555,0,0,0.05555555555555555,11.11111111111111,0)" xlink:href="#aN"/><use transform="matrix(0.05555555555555555,0,0,0.05555555555555555,22.22222222222222,0)" xlink:href="#aJ"/><use transform="matrix(0.05555555555555555,0,0,0.05555555555555555,27.77777777777778,0)" xlink:href="#aV"/><use transform="matrix(0.05555555555555555,0,0,0.05555555555555555,42.166666666666664,0)" xlink:href="#aQ"/><use transform="matrix(0.05555555555555555,0,0,0.05555555555555555,53.27777777777777,0)" xlink:href="#aO"/><use transform="matrix(0.05555555555555555,0,0,0.05555555555555555,59.888888888888886,0)" xlink:href="#aM"/></g><g id="V"><use transform="matrix(0.05555555555555555,0,0,0.05555555555555555,0,0)" xlink:href="#aJ"/><use transform="matrix(0.05555555555555555,0,0,0.05555555555555555,5.555555555555555,0)" xlink:href="#aO"/><use transform="matrix(0.05555555555555555,0,0,0.05555555555555555,12.166666666666666,0)" xlink:href="#aT"/><use transform="matrix(0.05555555555555555,0,0,0.05555555555555555,16.555555555555554,0)" xlink:href="#aR"/><use transform="matrix(0.05555555555555555,0,0,0.05555555555555555,27.666666666666664,0)" xlink:href="#aR"/><use transform="matrix(0.05555555555555555,0,0,0.05555555555555555,38.77777777777777,0)" xlink:href="#aN"/><use transform="matrix(0.05555555555555555,0,0,0.05555555555555555,49.888888888888886,0)" xlink:href="#aO"/><use transform="matrix(0.05555555555555555,0,0,0.05555555555555555,56.5,0)" xlink:href="#aS"/></g><g id="W"><use transform="matrix(0.05555555555555555,0,0,0.05555555555555555,0,0)" xlink:href="#aO"/><use transform="matrix(0.05555555555555555,0,0,0.05555555555555555,6.611111111111111,0)" xlink:href="#aK"/><use transform="matrix(0.05555555555555555,0,0,0.05555555555555555,17.72222222222222,0)" xlink:href="#aU"/><use transform="matrix(0.05555555555555555,0,0,0.05555555555555555,28.833333333333332,0)" xlink:href="#aS"/><use transform="matrix(0.05555555555555555,0,0,0.05555555555555555,38.83333333333333,0)" xlink:href="#aQ"/><use transform="matrix(0.05555555555555555,0,0,0.05555555555555555,49.94444444444444,0)" xlink:href="#aX"/><use transform="matrix(0.05555555555555555,0,0,0.05555555555555555,66.55555555555556,0)" xlink:href="#aV"/><use transform="matrix(0.05555555555555555,0,0,0.05555555555555555,80.94444444444444,0)" xlink:href="#aK"/><use transform="matrix(0.05555555555555555,0,0,0.05555555555555555,92.05555555555556,0)" xlink:href="#aO"/><use transform="matrix(0.05555555555555555,0,0,0.05555555555555555,98.66666666666667,0)" xlink:href="#aN"/></g><g id="X"><use transform="matrix(0.05555555555555555,0,0,0.05555555555555555,0,0)" xlink:href="#aW"/><use transform="matrix(0.05555555555555555,0,0,0.05555555555555555,11.11111111111111,0)" xlink:href="#aN"/><use transform="matrix(0.05555555555555555,0,0,0.05555555555555555,22.22222222222222,0)" xlink:href="#aR"/><use transform="matrix(0.05555555555555555,0,0,0.05555555555555555,33.33333333333333,0)" xlink:href="#aT"/><use transform="matrix(0.05555555555555555,0,0,0.05555555555555555,37.722222222222214,0)" xlink:href="#aU"/></g><g id="Y"><use transform="matrix(0.05555555555555555,0,0,0.05555555555555555,0,0)" xlink:href="#aN"/><use transform="matrix(0.05555555555555555,0,0,0.05555555555555555,11.11111111111111,0)" xlink:href="#aU"/><use transform="matrix(0.05555555555555555,0,0,0.05555555555555555,22.22222222222222,0)" xlink:href="#aL"/><use transform="matrix(0.05555555555555555,0,0,0.05555555555555555,32.22222222222222,0)" xlink:href="#aO"/><use transform="matrix(0.05555555555555555,0,0,0.05555555555555555,38.83333333333333,0)" xlink:href="#bi"/><use transform="matrix(0.05555555555555555,0,0,0.05555555555555555,48.83333333333333,0)" xlink:href="#bd"/><use transform="matrix(0.05555555555555555,0,0,0.05555555555555555,59.94444444444444,0)" xlink:href="#aJ"/><use transform="matrix(0.05555555555555555,0,0,0.05555555555555555,65.5,0)" xlink:href="#aT"/><use transform="matrix(0.05555555555555555,0,0,0.05555555555555555,69.88888888888889,0)" xlink:href="#aQ"/><use transform="matrix(0.05555555555555555,0,0,0.05555555555555555,81,0)" xlink:href="#aU"/></g><path fill="#fff" d="M185-189c-5-48-123-54-124 2 14 75 158 14 163 119 3 78-121 87-175 55-17-10-28-26-33-46l33-7c5 56 141 63 141-1 0-78-155-14-162-118-5-82 145-84 179-34 5 7 8 16 11 25" id="bk"/><g id="Z"><use transform="matrix(0.05555555555555555,0,0,0.05555555555555555,0,0)" xlink:href="#bk"/><use transform="matrix(0.05555555555555555,0,0,0.05555555555555555,13.333333333333332,0)" xlink:href="#aN"/><use transform="matrix(0.05555555555555555,0,0,0.05555555555555555,24.444444444444443,0)" xlink:href="#aO"/><use transform="matrix(0.05555555555555555,0,0,0.05555555555555555,31.055555555555554,0)" xlink:href="#bf"/><use transform="matrix(0.05555555555555555,0,0,0.05555555555555555,41.05555555555556,0)" xlink:href="#aT"/><use transform="matrix(0.05555555555555555,0,0,0.05555555555555555,45.44444444444444,0)" xlink:href="#aL"/><use transform="matrix(0.05555555555555555,0,0,0.05555555555555555,55.44444444444444,0)" xlink:href="#aN"/><use transform="matrix(0.05555555555555555,0,0,0.05555555555555555,66.55555555555556,0)" xlink:href="#aS"/></g><g id="aa"><use transform="matrix(0.05555555555555555,0,0,0.05555555555555555,0,0)" xlink:href="#aK"/><use transform="matrix(0.05555555555555555,0,0,0.05555555555555555,11.11111111111111,0)" xlink:href="#aO"/><use transform="matrix(0.05555555555555555,0,0,0.05555555555555555,17.72222222222222,0)" xlink:href="#aN"/></g><g id="ab"><use transform="matrix(0.05555555555555555,0,0,0.05555555555555555,0,0)" xlink:href="#bb"/><use transform="matrix(0.05555555555555555,0,0,0.05555555555555555,11.11111111111111,0)" xlink:href="#aT"/><use transform="matrix(0.05555555555555555,0,0,0.05555555555555555,15.5,0)" xlink:href="#aS"/><use transform="matrix(0.05555555555555555,0,0,0.05555555555555555,25.5,0)" xlink:href="#aO"/><use transform="matrix(0.05555555555555555,0,0,0.05555555555555555,32.111111111111114,0)" xlink:href="#aZ"/><use transform="matrix(0.05555555555555555,0,0,0.05555555555555555,43.22222222222223,0)" xlink:href="#bd"/><use transform="matrix(0.05555555555555555,0,0,0.05555555555555555,54.33333333333334,0)" xlink:href="#aJ"/><use transform="matrix(0.05555555555555555,0,0,0.05555555555555555,59.8888888888889,0)" xlink:href="#aN"/><use transform="matrix(0.05555555555555555,0,0,0.05555555555555555,71.00000000000001,0)" xlink:href="#bb"/></g><g id="ac"><use transform="matrix(0.05555555555555555,0,0,0.05555555555555555,0,0)" xlink:href="#bf"/><use transform="matrix(0.05555555555555555,0,0,0.05555555555555555,10,0)" xlink:href="#aT"/><use transform="matrix(0.05555555555555555,0,0,0.05555555555555555,14.388888888888888,0)" xlink:href="#aJ"/><use transform="matrix(0.05555555555555555,0,0,0.05555555555555555,19.944444444444443,0)" xlink:href="#aK"/><use transform="matrix(0.05555555555555555,0,0,0.05555555555555555,31.055555555555554,0)" xlink:href="#aP"/></g><g id="ad"><use transform="matrix(0.05555555555555555,0,0,0.05555555555555555,0,0)" xlink:href="#aL"/><use transform="matrix(0.05555555555555555,0,0,0.05555555555555555,10,0)" xlink:href="#aQ"/><use transform="matrix(0.05555555555555555,0,0,0.05555555555555555,21.11111111111111,0)" xlink:href="#aU"/><use transform="matrix(0.05555555555555555,0,0,0.05555555555555555,32.22222222222222,0)" xlink:href="#bc"/><use transform="matrix(0.05555555555555555,0,0,0.05555555555555555,37.77777777777778,0)" xlink:href="#aT"/><use transform="matrix(0.05555555555555555,0,0,0.05555555555555555,42.166666666666664,0)" xlink:href="#aR"/><use transform="matrix(0.05555555555555555,0,0,0.05555555555555555,53.27777777777777,0)" xlink:href="#aZ"/><use transform="matrix(0.05555555555555555,0,0,0.05555555555555555,64.38888888888889,0)" xlink:href="#aO"/><use transform="matrix(0.05555555555555555,0,0,0.05555555555555555,71,0)" xlink:href="#aK"/><use transform="matrix(0.05555555555555555,0,0,0.05555555555555555,82.11111111111111,0)" xlink:href="#aJ"/><use transform="matrix(0.05555555555555555,0,0,0.05555555555555555,87.66666666666667,0)" xlink:href="#aT"/><use transform="matrix(0.05555555555555555,0,0,0.05555555555555555,92.05555555555556,0)" xlink:href="#aQ"/><use transform="matrix(0.05555555555555555,0,0,0.05555555555555555,103.16666666666667,0)" xlink:href="#aU"/></g><g id="ae"><use transform="matrix(0.05555555555555555,0,0,0.05555555555555555,0,0)" xlink:href="#bc"/><use transform="matrix(0.05555555555555555,0,0,0.05555555555555555,5.555555555555555,0)" xlink:href="#aT"/><use transform="matrix(0.05555555555555555,0,0,0.05555555555555555,9.944444444444443,0)" xlink:href="#aP"/><use transform="matrix(0.05555555555555555,0,0,0.05555555555555555,14.333333333333332,0)" xlink:href="#aN"/><use transform="matrix(0.05555555555555555,0,0,0.05555555555555555,25.444444444444443,0)" xlink:href="#aS"/></g><g id="af"><use transform="matrix(0.05555555555555555,0,0,0.05555555555555555,0,0)" xlink:href="#aN"/><use transform="matrix(0.05555555555555555,0,0,0.05555555555555555,11.11111111111111,0)" xlink:href="#aU"/><use transform="matrix(0.05555555555555555,0,0,0.05555555555555555,22.22222222222222,0)" xlink:href="#aL"/><use transform="matrix(0.05555555555555555,0,0,0.05555555555555555,32.22222222222222,0)" xlink:href="#aO"/><use transform="matrix(0.05555555555555555,0,0,0.05555555555555555,38.83333333333333,0)" xlink:href="#bi"/><use transform="matrix(0.05555555555555555,0,0,0.05555555555555555,48.83333333333333,0)" xlink:href="#bd"/><use transform="matrix(0.05555555555555555,0,0,0.05555555555555555,59.94444444444444,0)" xlink:href="#aJ"/><use transform="matrix(0.05555555555555555,0,0,0.05555555555555555,65.5,0)" xlink:href="#aN"/><use transform="matrix(0.05555555555555555,0,0,0.05555555555555555,76.61111111111111,0)" xlink:href="#bb"/></g><path fill="#fff" d="M238-95c0 69-44 99-111 99C63 4 22-25 22-93v-155h51v151c-1 38 19 59 55 60 90 1 49-130 58-211h52v153" id="bl"/><path fill="#fff" d="M137-138c1-29-70-34-71-4 15 46 118 7 119 86 1 83-164 76-172 9l43-7c4 19 20 25 44 25 33 8 57-30 24-41C81-84 22-81 20-136c-2-80 154-74 161-7" id="bm"/><path fill="#fff" d="M185-48c-13 30-37 53-82 52C43 2 14-33 14-96s30-98 90-98c62 0 83 45 84 108H66c0 31 8 55 39 56 18 0 30-7 34-22zm-45-69c5-46-57-63-70-21-2 6-4 13-4 21h74" id="bn"/><path fill="#fff" d="M135-150c-39-12-60 13-60 57V0H25l-1-190h47c2 13-1 29 3 40 6-28 27-53 61-41v41" id="bo"/><g id="ag"><use transform="matrix(0.06790123456790124,0,0,0.06790123456790124,0,0)" xlink:href="#bl"/><use transform="matrix(0.06790123456790124,0,0,0.06790123456790124,17.58641975308642,0)" xlink:href="#bm"/><use transform="matrix(0.06790123456790124,0,0,0.06790123456790124,31.16666666666667,0)" xlink:href="#bn"/><use transform="matrix(0.06790123456790124,0,0,0.06790123456790124,44.74691358024692,0)" xlink:href="#bo"/></g><path fill="#fff" d="M133-34C117-15 103 5 69 4 32 3 11-16 11-54c-1-60 55-63 116-61 1-26-3-47-28-47-18 1-26 9-28 27l-52-2c7-38 36-58 82-57s74 22 75 68l1 82c-1 14 12 18 25 15v27c-30 8-71 5-69-32zm-48 3c29 0 43-24 42-57-32 0-66-3-65 30 0 17 8 27 23 27" id="bp"/><path fill="#fff" d="M190-63c-7 42-38 67-86 67-59 0-84-38-90-98-12-110 154-137 174-36l-49 2c-2-19-15-32-35-32-30 0-35 28-38 64-6 74 65 87 74 30" id="bq"/><path fill="#fff" d="M115-3C79 11 28 4 28-45v-112H4v-33h27l15-45h31v45h36v33H77v99c-1 23 16 31 38 25v30" id="br"/><path fill="#fff" d="M25-224v-37h50v37H25zM25 0v-190h50V0H25" id="bs"/><path fill="#fff" d="M110-194c64 0 96 36 96 99 0 64-35 99-97 99-61 0-95-36-95-99 0-62 34-99 96-99zm-1 164c35 0 45-28 45-65 0-40-10-65-43-65-34 0-45 26-45 65 0 36 10 65 43 65" id="bt"/><path fill="#fff" d="M135-194c87-1 58 113 63 194h-50c-7-57 23-157-34-157-59 0-34 97-39 157H25l-1-190h47c2 12-1 28 3 38 12-26 28-41 61-42" id="bu"/><g id="ah"><use transform="matrix(0.06790123456790124,0,0,0.06790123456790124,0,0)" xlink:href="#bp"/><use transform="matrix(0.06790123456790124,0,0,0.06790123456790124,13.580246913580249,0)" xlink:href="#bq"/><use transform="matrix(0.06790123456790124,0,0,0.06790123456790124,27.160493827160497,0)" xlink:href="#br"/><use transform="matrix(0.06790123456790124,0,0,0.06790123456790124,35.24074074074075,0)" xlink:href="#bs"/><use transform="matrix(0.06790123456790124,0,0,0.06790123456790124,42.03086419753088,0)" xlink:href="#bt"/><use transform="matrix(0.06790123456790124,0,0,0.06790123456790124,56.90123456790125,0)" xlink:href="#bu"/><use transform="matrix(0.06790123456790124,0,0,0.06790123456790124,71.77160493827162,0)" xlink:href="#bm"/></g><path fill="#fff" d="M199 0l-22-63H83L61 0H9l90-248h61L250 0h-51zm-33-102l-36-108c-10 38-24 72-36 108h72" id="bv"/><path fill="#fff" d="M147 0L96-86 75-71V0H25v-261h50v150l67-79h53l-66 74L201 0h-54" id="bw"/><g id="ai"><use transform="matrix(0.06790123456790124,0,0,0.06790123456790124,0,0)" xlink:href="#bv"/><use transform="matrix(0.06790123456790124,0,0,0.06790123456790124,17.58641975308642,0)" xlink:href="#br"/><use transform="matrix(0.06790123456790124,0,0,0.06790123456790124,25.66666666666667,0)" xlink:href="#br"/><use transform="matrix(0.06790123456790124,0,0,0.06790123456790124,33.74691358024692,0)" xlink:href="#bp"/><use transform="matrix(0.06790123456790124,0,0,0.06790123456790124,47.327160493827165,0)" xlink:href="#bq"/><use transform="matrix(0.06790123456790124,0,0,0.06790123456790124,60.90740740740741,0)" xlink:href="#bw"/><use transform="matrix(0.06790123456790124,0,0,0.06790123456790124,74.48765432098766,0)" xlink:href="#bn"/><use transform="matrix(0.06790123456790124,0,0,0.06790123456790124,88.06790123456791,0)" xlink:href="#bo"/></g><path fill="#fff" d="M24-248c120-7 223 5 221 122C244-46 201 0 124 0H24v-248zM76-40c74 7 117-18 117-86 0-67-45-88-117-82v168" id="bx"/><g id="aj"><use transform="matrix(0.06790123456790124,0,0,0.06790123456790124,0,0)" xlink:href="#bx"/><use transform="matrix(0.06790123456790124,0,0,0.06790123456790124,17.58641975308642,0)" xlink:href="#bn"/><use transform="matrix(0.06790123456790124,0,0,0.06790123456790124,31.16666666666667,0)" xlink:href="#br"/><use transform="matrix(0.06790123456790124,0,0,0.06790123456790124,39.24691358024692,0)" xlink:href="#bn"/><use transform="matrix(0.06790123456790124,0,0,0.06790123456790124,52.827160493827165,0)" xlink:href="#bq"/><use transform="matrix(0.06790123456790124,0,0,0.06790123456790124,66.40740740740742,0)" xlink:href="#br"/><use transform="matrix(0.06790123456790124,0,0,0.06790123456790124,74.48765432098766,0)" xlink:href="#bs"/><use transform="matrix(0.06790123456790124,0,0,0.06790123456790124,81.2777777777778,0)" xlink:href="#bt"/><use transform="matrix(0.06790123456790124,0,0,0.06790123456790124,96.14814814814817,0)" xlink:href="#bu"/></g><path fill="#fff" d="M24-248c93 1 206-16 204 79-1 75-69 88-152 82V0H24v-248zm52 121c47 0 100 7 100-41 0-47-54-39-100-39v80" id="by"/><path fill="#fff" d="M128 0H69L1-190h53L99-40l48-150h52" id="bz"/><g id="ak"><use transform="matrix(0.06790123456790124,0,0,0.06790123456790124,0,0)" xlink:href="#by"/><use transform="matrix(0.06790123456790124,0,0,0.06790123456790124,16.296296296296298,0)" xlink:href="#bo"/><use transform="matrix(0.06790123456790124,0,0,0.06790123456790124,25.802469135802472,0)" xlink:href="#bn"/><use transform="matrix(0.06790123456790124,0,0,0.06790123456790124,39.38271604938272,0)" xlink:href="#bz"/><use transform="matrix(0.06790123456790124,0,0,0.06790123456790124,52.96296296296297,0)" xlink:href="#bn"/><use transform="matrix(0.06790123456790124,0,0,0.06790123456790124,66.54320987654322,0)" xlink:href="#bu"/><use transform="matrix(0.06790123456790124,0,0,0.06790123456790124,81.41358024691358,0)" xlink:href="#br"/><use transform="matrix(0.06790123456790124,0,0,0.06790123456790124,89.49382716049384,0)" xlink:href="#bs"/><use transform="matrix(0.06790123456790124,0,0,0.06790123456790124,96.28395061728396,0)" xlink:href="#bt"/><use transform="matrix(0.06790123456790124,0,0,0.06790123456790124,111.15432098765434,0)" xlink:href="#bu"/></g><path fill="#fff" d="M127-220V0H93v-220H8v-28h204v28h-85" id="bA"/><path fill="#fff" d="M68-38c1 34 0 65-14 84H32c9-13 17-26 17-46H33v-38h35" id="bB"/><g id="al"><use transform="matrix(0.05555555555555555,0,0,0.05555555555555555,0,0)" xlink:href="#bA"/><use transform="matrix(0.05555555555555555,0,0,0.05555555555555555,11.444444444444445,0)" xlink:href="#aO"/><use transform="matrix(0.05555555555555555,0,0,0.05555555555555555,18.055555555555557,0)" xlink:href="#aK"/><use transform="matrix(0.05555555555555555,0,0,0.05555555555555555,29.166666666666664,0)" xlink:href="#aT"/><use transform="matrix(0.05555555555555555,0,0,0.05555555555555555,33.55555555555556,0)" xlink:href="#aU"/><use transform="matrix(0.05555555555555555,0,0,0.05555555555555555,44.66666666666667,0)" xlink:href="#aT"/><use transform="matrix(0.05555555555555555,0,0,0.05555555555555555,49.05555555555556,0)" xlink:href="#aU"/><use transform="matrix(0.05555555555555555,0,0,0.05555555555555555,60.16666666666668,0)" xlink:href="#aR"/><use transform="matrix(0.05555555555555555,0,0,0.05555555555555555,71.27777777777779,0)" xlink:href="#bB"/></g><g id="am"><use transform="matrix(0.05555555555555555,0,0,0.05555555555555555,0,0)" xlink:href="#aK"/><use transform="matrix(0.05555555555555555,0,0,0.05555555555555555,11.11111111111111,0)" xlink:href="#aU"/><use transform="matrix(0.05555555555555555,0,0,0.05555555555555555,22.22222222222222,0)" xlink:href="#aJ"/><use transform="matrix(0.05555555555555555,0,0,0.05555555555555555,27.77777777777778,0)" xlink:href="#aT"/><use transform="matrix(0.05555555555555555,0,0,0.05555555555555555,32.166666666666664,0)" xlink:href="#bg"/><use transform="matrix(0.05555555555555555,0,0,0.05555555555555555,38.77777777777777,0)" xlink:href="#bd"/><use transform="matrix(0.05555555555555555,0,0,0.05555555555555555,49.888888888888886,0)" xlink:href="#aY"/><use transform="matrix(0.05555555555555555,0,0,0.05555555555555555,61,0)" xlink:href="#aT"/><use transform="matrix(0.05555555555555555,0,0,0.05555555555555555,65.38888888888889,0)" xlink:href="#aS"/><use transform="matrix(0.05555555555555555,0,0,0.05555555555555555,75.38888888888889,0)" xlink:href="#aY"/><use transform="matrix(0.05555555555555555,0,0,0.05555555555555555,86.5,0)" xlink:href="#aT"/><use transform="matrix(0.05555555555555555,0,0,0.05555555555555555,90.88888888888889,0)" xlink:href="#aU"/><use transform="matrix(0.05555555555555555,0,0,0.05555555555555555,102,0)" xlink:href="#aR"/></g><g id="an"><use transform="matrix(0.05555555555555555,0,0,0.05555555555555555,0,0)" xlink:href="#aJ"/><use transform="matrix(0.05555555555555555,0,0,0.05555555555555555,5.555555555555555,0)" xlink:href="#aN"/><use transform="matrix(0.05555555555555555,0,0,0.05555555555555555,16.666666666666664,0)" xlink:href="#aL"/><use transform="matrix(0.05555555555555555,0,0,0.05555555555555555,26.666666666666664,0)" xlink:href="#aY"/><use transform="matrix(0.05555555555555555,0,0,0.05555555555555555,37.77777777777777,0)" xlink:href="#aU"/><use transform="matrix(0.05555555555555555,0,0,0.05555555555555555,48.888888888888886,0)" xlink:href="#aQ"/><use transform="matrix(0.05555555555555555,0,0,0.05555555555555555,60,0)" xlink:href="#aP"/><use transform="matrix(0.05555555555555555,0,0,0.05555555555555555,64.38888888888889,0)" xlink:href="#aQ"/><use transform="matrix(0.05555555555555555,0,0,0.05555555555555555,75.5,0)" xlink:href="#aR"/><use transform="matrix(0.05555555555555555,0,0,0.05555555555555555,86.61111111111111,0)" xlink:href="#aT"/><use transform="matrix(0.05555555555555555,0,0,0.05555555555555555,91,0)" xlink:href="#aN"/><use transform="matrix(0.05555555555555555,0,0,0.05555555555555555,102.11111111111111,0)" xlink:href="#aS"/></g><g id="ao"><use transform="matrix(0.05555555555555555,0,0,0.05555555555555555,0,0)" xlink:href="#aK"/><use transform="matrix(0.05555555555555555,0,0,0.05555555555555555,11.11111111111111,0)" xlink:href="#bd"/><use transform="matrix(0.05555555555555555,0,0,0.05555555555555555,22.22222222222222,0)" xlink:href="#bd"/><use transform="matrix(0.05555555555555555,0,0,0.05555555555555555,33.33333333333333,0)" xlink:href="#aP"/><use transform="matrix(0.05555555555555555,0,0,0.05555555555555555,37.722222222222214,0)" xlink:href="#aT"/><use transform="matrix(0.05555555555555555,0,0,0.05555555555555555,42.1111111111111,0)" xlink:href="#aN"/><use transform="matrix(0.05555555555555555,0,0,0.05555555555555555,53.222222222222214,0)" xlink:href="#bb"/></g><g id="ap"><use transform="matrix(0.05555555555555555,0,0,0.05555555555555555,0,0)" xlink:href="#aJ"/><use transform="matrix(0.05555555555555555,0,0,0.05555555555555555,5.555555555555555,0)" xlink:href="#aY"/><use transform="matrix(0.05555555555555555,0,0,0.05555555555555555,16.666666666666664,0)" xlink:href="#aO"/><use transform="matrix(0.05555555555555555,0,0,0.05555555555555555,23.277777777777775,0)" xlink:href="#aN"/><use transform="matrix(0.05555555555555555,0,0,0.05555555555555555,34.388888888888886,0)" xlink:href="#aK"/><use transform="matrix(0.05555555555555555,0,0,0.05555555555555555,45.5,0)" xlink:href="#aJ"/></g><g id="aq"><use transform="matrix(0.05555555555555555,0,0,0.05555555555555555,0,0)" xlink:href="#aT"/><use transform="matrix(0.05555555555555555,0,0,0.05555555555555555,4.388888888888888,0)" xlink:href="#aU"/><use transform="matrix(0.05555555555555555,0,0,0.05555555555555555,15.5,0)" xlink:href="#aJ"/><use transform="matrix(0.05555555555555555,0,0,0.05555555555555555,21.055555555555557,0)" xlink:href="#aN"/><use transform="matrix(0.05555555555555555,0,0,0.05555555555555555,32.16666666666667,0)" xlink:href="#aP"/></g><g id="ar"><use transform="matrix(0.05555555555555555,0,0,0.05555555555555555,0,0)" xlink:href="#aV"/><use transform="matrix(0.05555555555555555,0,0,0.05555555555555555,14.388888888888888,0)" xlink:href="#aN"/><use transform="matrix(0.05555555555555555,0,0,0.05555555555555555,25.5,0)" xlink:href="#aW"/></g><g id="as"><use transform="matrix(0.05555555555555555,0,0,0.05555555555555555,0,0)" xlink:href="#aX"/><use transform="matrix(0.05555555555555555,0,0,0.05555555555555555,16.61111111111111,0)" xlink:href="#aQ"/><use transform="matrix(0.05555555555555555,0,0,0.05555555555555555,27.72222222222222,0)" xlink:href="#aU"/><use transform="matrix(0.05555555555555555,0,0,0.05555555555555555,38.83333333333333,0)" xlink:href="#aT"/><use transform="matrix(0.05555555555555555,0,0,0.05555555555555555,43.222222222222214,0)" xlink:href="#aJ"/><use transform="matrix(0.05555555555555555,0,0,0.05555555555555555,48.77777777777777,0)" xlink:href="#aQ"/><use transform="matrix(0.05555555555555555,0,0,0.05555555555555555,59.888888888888886,0)" xlink:href="#aO"/><use transform="matrix(0.05555555555555555,0,0,0.05555555555555555,66.5,0)" xlink:href="#aT"/><use transform="matrix(0.05555555555555555,0,0,0.05555555555555555,70.88888888888889,0)" xlink:href="#aU"/><use transform="matrix(0.05555555555555555,0,0,0.05555555555555555,82,0)" xlink:href="#aR"/></g><g id="at"><use transform="matrix(0.05555555555555555,0,0,0.05555555555555555,0,0)" xlink:href="#aW"/><use transform="matrix(0.05555555555555555,0,0,0.05555555555555555,11.11111111111111,0)" xlink:href="#aN"/><use transform="matrix(0.05555555555555555,0,0,0.05555555555555555,22.22222222222222,0)" xlink:href="#aY"/><use transform="matrix(0.05555555555555555,0,0,0.05555555555555555,33.33333333333333,0)" xlink:href="#aK"/><use transform="matrix(0.05555555555555555,0,0,0.05555555555555555,44.44444444444444,0)" xlink:href="#bf"/><use transform="matrix(0.05555555555555555,0,0,0.05555555555555555,54.44444444444444,0)" xlink:href="#aT"/><use transform="matrix(0.05555555555555555,0,0,0.05555555555555555,58.83333333333333,0)" xlink:href="#aQ"/><use transform="matrix(0.05555555555555555,0,0,0.05555555555555555,69.94444444444444,0)" xlink:href="#aZ"/><use transform="matrix(0.05555555555555555,0,0,0.05555555555555555,81.05555555555556,0)" xlink:href="#aO"/></g><g id="au"><use transform="matrix(0.05555555555555555,0,0,0.05555555555555555,0,0)" xlink:href="#aK"/><use transform="matrix(0.05555555555555555,0,0,0.05555555555555555,11.11111111111111,0)" xlink:href="#aU"/><use transform="matrix(0.05555555555555555,0,0,0.05555555555555555,22.22222222222222,0)" xlink:href="#aK"/><use transform="matrix(0.05555555555555555,0,0,0.05555555555555555,33.33333333333333,0)" xlink:href="#aP"/><use transform="matrix(0.05555555555555555,0,0,0.05555555555555555,37.722222222222214,0)" xlink:href="#bi"/><use transform="matrix(0.05555555555555555,0,0,0.05555555555555555,47.722222222222214,0)" xlink:href="#aJ"/><use transform="matrix(0.05555555555555555,0,0,0.05555555555555555,53.27777777777777,0)" xlink:href="#aT"/><use transform="matrix(0.05555555555555555,0,0,0.05555555555555555,57.666666666666664,0)" xlink:href="#aL"/><use transform="matrix(0.05555555555555555,0,0,0.05555555555555555,67.66666666666666,0)" xlink:href="#aS"/></g><path fill="#fff" d="M240 0l2-218c-23 76-54 145-80 218h-23L58-218 59 0H30v-248h44l77 211c21-75 51-140 76-211h43V0h-30" id="bC"/><g id="av"><use transform="matrix(0.05555555555555555,0,0,0.05555555555555555,0,0)" xlink:href="#bC"/><use transform="matrix(0.05555555555555555,0,0,0.05555555555555555,16.61111111111111,0)" xlink:href="#aZ"/><use transform="matrix(0.05555555555555555,0,0,0.05555555555555555,27.72222222222222,0)" xlink:href="#aP"/><use transform="matrix(0.05555555555555555,0,0,0.05555555555555555,32.11111111111111,0)" xlink:href="#aJ"/><use transform="matrix(0.05555555555555555,0,0,0.05555555555555555,37.666666666666664,0)" xlink:href="#aT"/><use transform="matrix(0.05555555555555555,0,0,0.05555555555555555,42.05555555555555,0)" xlink:href="#bg"/><use transform="matrix(0.05555555555555555,0,0,0.05555555555555555,48.66666666666666,0)" xlink:href="#bc"/><use transform="matrix(0.05555555555555555,0,0,0.05555555555555555,54.222222222222214,0)" xlink:href="#aK"/><use transform="matrix(0.05555555555555555,0,0,0.05555555555555555,65.33333333333333,0)" xlink:href="#aL"/><use transform="matrix(0.05555555555555555,0,0,0.05555555555555555,75.33333333333333,0)" xlink:href="#aJ"/><use transform="matrix(0.05555555555555555,0,0,0.05555555555555555,80.88888888888889,0)" xlink:href="#aQ"/><use transform="matrix(0.05555555555555555,0,0,0.05555555555555555,92,0)" xlink:href="#aO"/></g><g id="aw"><use transform="matrix(0.05555555555555555,0,0,0.05555555555555555,0,0)" xlink:href="#aK"/><use transform="matrix(0.05555555555555555,0,0,0.05555555555555555,11.11111111111111,0)" xlink:href="#aZ"/><use transform="matrix(0.05555555555555555,0,0,0.05555555555555555,22.22222222222222,0)" xlink:href="#aJ"/><use transform="matrix(0.05555555555555555,0,0,0.05555555555555555,27.77777777777778,0)" xlink:href="#aY"/><use transform="matrix(0.05555555555555555,0,0,0.05555555555555555,38.888888888888886,0)" xlink:href="#aN"/><use transform="matrix(0.05555555555555555,0,0,0.05555555555555555,50,0)" xlink:href="#aU"/><use transform="matrix(0.05555555555555555,0,0,0.05555555555555555,61.11111111111112,0)" xlink:href="#aJ"/><use transform="matrix(0.05555555555555555,0,0,0.05555555555555555,66.66666666666667,0)" xlink:href="#aT"/><use transform="matrix(0.05555555555555555,0,0,0.05555555555555555,71.05555555555556,0)" xlink:href="#aL"/><use transform="matrix(0.05555555555555555,0,0,0.05555555555555555,81.05555555555556,0)" xlink:href="#aK"/><use transform="matrix(0.05555555555555555,0,0,0.05555555555555555,92.16666666666667,0)" xlink:href="#aJ"/><use transform="matrix(0.05555555555555555,0,0,0.05555555555555555,97.72222222222223,0)" xlink:href="#aT"/><use transform="matrix(0.05555555555555555,0,0,0.05555555555555555,102.11111111111111,0)" xlink:href="#aQ"/><use transform="matrix(0.05555555555555555,0,0,0.05555555555555555,113.22222222222223,0)" xlink:href="#aU"/><use transform="matrix(0.05555555555555555,0,0,0.05555555555555555,124.33333333333336,0)" xlink:href="#bB"/></g><g id="ax"><use transform="matrix(0.05555555555555555,0,0,0.05555555555555555,0,0)" xlink:href="#aZ"/><use transform="matrix(0.05555555555555555,0,0,0.05555555555555555,11.11111111111111,0)" xlink:href="#aS"/><use transform="matrix(0.05555555555555555,0,0,0.05555555555555555,21.11111111111111,0)" xlink:href="#aN"/><use transform="matrix(0.05555555555555555,0,0,0.05555555555555555,32.22222222222222,0)" xlink:href="#aO"/></g><path fill="#fff" d="M30-248c118-7 216 8 213 122C240-48 200 0 122 0H30v-248zM63-27c89 8 146-16 146-99s-60-101-146-95v194" id="bD"/><g id="ay"><use transform="matrix(0.05555555555555555,0,0,0.05555555555555555,0,0)" xlink:href="#bD"/><use transform="matrix(0.05555555555555555,0,0,0.05555555555555555,14.388888888888888,0)" xlink:href="#aK"/><use transform="matrix(0.05555555555555555,0,0,0.05555555555555555,25.5,0)" xlink:href="#aJ"/><use transform="matrix(0.05555555555555555,0,0,0.05555555555555555,31.05555555555556,0)" xlink:href="#aK"/></g><g id="az"><use transform="matrix(0.05555555555555555,0,0,0.05555555555555555,0,0)" xlink:href="#aP"/><use transform="matrix(0.05555555555555555,0,0,0.05555555555555555,4.388888888888888,0)" xlink:href="#aQ"/><use transform="matrix(0.05555555555555555,0,0,0.05555555555555555,15.5,0)" xlink:href="#aS"/><use transform="matrix(0.05555555555555555,0,0,0.05555555555555555,25.5,0)" xlink:href="#aS"/></g><g id="aA"><use transform="matrix(0.05555555555555555,0,0,0.05555555555555555,0,0)" xlink:href="#bd"/><use transform="matrix(0.05555555555555555,0,0,0.05555555555555555,11.11111111111111,0)" xlink:href="#aO"/><use transform="matrix(0.05555555555555555,0,0,0.05555555555555555,17.72222222222222,0)" xlink:href="#aN"/><use transform="matrix(0.05555555555555555,0,0,0.05555555555555555,28.833333333333332,0)" xlink:href="#bf"/><use transform="matrix(0.05555555555555555,0,0,0.05555555555555555,38.83333333333333,0)" xlink:href="#aN"/><use transform="matrix(0.05555555555555555,0,0,0.05555555555555555,49.94444444444444,0)" xlink:href="#aU"/><use transform="matrix(0.05555555555555555,0,0,0.05555555555555555,61.05555555555555,0)" xlink:href="#aJ"/><use transform="matrix(0.05555555555555555,0,0,0.05555555555555555,66.61111111111111,0)" xlink:href="#aT"/><use transform="matrix(0.05555555555555555,0,0,0.05555555555555555,71,0)" xlink:href="#aQ"/><use transform="matrix(0.05555555555555555,0,0,0.05555555555555555,82.11111111111111,0)" xlink:href="#aU"/></g><g id="aB"><use transform="matrix(0.05555555555555555,0,0,0.05555555555555555,0,0)" xlink:href="#bh"/><use transform="matrix(0.05555555555555555,0,0,0.05555555555555555,13.333333333333332,0)" xlink:href="#aU"/><use transform="matrix(0.05555555555555555,0,0,0.05555555555555555,24.444444444444443,0)" xlink:href="#bb"/><use transform="matrix(0.05555555555555555,0,0,0.05555555555555555,35.55555555555556,0)" xlink:href="#bd"/><use transform="matrix(0.05555555555555555,0,0,0.05555555555555555,46.66666666666667,0)" xlink:href="#aQ"/><use transform="matrix(0.05555555555555555,0,0,0.05555555555555555,57.777777777777786,0)" xlink:href="#aT"/><use transform="matrix(0.05555555555555555,0,0,0.05555555555555555,62.16666666666668,0)" xlink:href="#aU"/><use transform="matrix(0.05555555555555555,0,0,0.05555555555555555,73.27777777777779,0)" xlink:href="#aJ"/></g><g id="aC"><use transform="matrix(0.05555555555555555,0,0,0.05555555555555555,0,0)" xlink:href="#bd"/><use transform="matrix(0.05555555555555555,0,0,0.05555555555555555,11.11111111111111,0)" xlink:href="#aO"/><use transform="matrix(0.05555555555555555,0,0,0.05555555555555555,17.72222222222222,0)" xlink:href="#aQ"/><use transform="matrix(0.05555555555555555,0,0,0.05555555555555555,28.833333333333332,0)" xlink:href="#aJ"/><use transform="matrix(0.05555555555555555,0,0,0.05555555555555555,34.388888888888886,0)" xlink:href="#aN"/><use transform="matrix(0.05555555555555555,0,0,0.05555555555555555,45.5,0)" xlink:href="#aL"/><use transform="matrix(0.05555555555555555,0,0,0.05555555555555555,55.5,0)" xlink:href="#aJ"/><use transform="matrix(0.05555555555555555,0,0,0.05555555555555555,61.05555555555555,0)" xlink:href="#aT"/><use transform="matrix(0.05555555555555555,0,0,0.05555555555555555,65.44444444444444,0)" xlink:href="#aQ"/><use transform="matrix(0.05555555555555555,0,0,0.05555555555555555,76.55555555555556,0)" xlink:href="#aU"/></g><path fill="#fff" d="M212-179c-10-28-35-45-73-45-59 0-87 40-87 99 0 60 29 101 89 101 43 0 62-24 78-52l27 14C228-24 195 4 139 4 59 4 22-46 18-125c-6-104 99-153 187-111 19 9 31 26 39 46" id="bE"/><g id="aD"><use transform="matrix(0.05555555555555555,0,0,0.05555555555555555,0,0)" xlink:href="#bE"/><use transform="matrix(0.05555555555555555,0,0,0.05555555555555555,14.388888888888888,0)" xlink:href="#aP"/><use transform="matrix(0.05555555555555555,0,0,0.05555555555555555,18.777777777777775,0)" xlink:href="#aQ"/><use transform="matrix(0.05555555555555555,0,0,0.05555555555555555,29.888888888888886,0)" xlink:href="#aZ"/><use transform="matrix(0.05555555555555555,0,0,0.05555555555555555,41,0)" xlink:href="#bb"/></g><path fill="#fff" d="M141 0L90-78 38 0H4l68-98-65-92h35l48 74 47-74h35l-64 92 68 98h-35" id="bF"/><g id="aE"><use transform="matrix(0.05555555555555555,0,0,0.05555555555555555,0,0)" xlink:href="#aS"/><use transform="matrix(0.05555555555555555,0,0,0.05555555555555555,10,0)" xlink:href="#aK"/><use transform="matrix(0.05555555555555555,0,0,0.05555555555555555,21.11111111111111,0)" xlink:href="#aU"/><use transform="matrix(0.05555555555555555,0,0,0.05555555555555555,32.22222222222222,0)" xlink:href="#bb"/><use transform="matrix(0.05555555555555555,0,0,0.05555555555555555,43.33333333333333,0)" xlink:href="#aW"/><use transform="matrix(0.05555555555555555,0,0,0.05555555555555555,54.44444444444444,0)" xlink:href="#aQ"/><use transform="matrix(0.05555555555555555,0,0,0.05555555555555555,65.55555555555556,0)" xlink:href="#bF"/></g><g id="aF"><use transform="matrix(0.05555555555555555,0,0,0.05555555555555555,0,0)" xlink:href="#aN"/><use transform="matrix(0.05555555555555555,0,0,0.05555555555555555,11.11111111111111,0)" xlink:href="#aU"/><use transform="matrix(0.05555555555555555,0,0,0.05555555555555555,22.22222222222222,0)" xlink:href="#bb"/><use transform="matrix(0.05555555555555555,0,0,0.05555555555555555,33.33333333333333,0)" xlink:href="#bd"/><use transform="matrix(0.05555555555555555,0,0,0.05555555555555555,44.44444444444444,0)" xlink:href="#aQ"/><use transform="matrix(0.05555555555555555,0,0,0.05555555555555555,55.55555555555556,0)" xlink:href="#aT"/><use transform="matrix(0.05555555555555555,0,0,0.05555555555555555,59.94444444444444,0)" xlink:href="#aU"/><use transform="matrix(0.05555555555555555,0,0,0.05555555555555555,71.05555555555556,0)" xlink:href="#aJ"/></g><path fill="#fff" d="M190 0L58-211 59 0H30v-248h39L202-35l-2-213h31V0h-41" id="bG"/><g id="aG"><use transform="matrix(0.05555555555555555,0,0,0.05555555555555555,0,0)" xlink:href="#bG"/><use transform="matrix(0.05555555555555555,0,0,0.05555555555555555,14.388888888888888,0)" xlink:href="#aN"/><use transform="matrix(0.05555555555555555,0,0,0.05555555555555555,25.5,0)" xlink:href="#aJ"/><use transform="matrix(0.05555555555555555,0,0,0.05555555555555555,31.05555555555556,0)" xlink:href="#aV"/><use transform="matrix(0.05555555555555555,0,0,0.05555555555555555,45.44444444444444,0)" xlink:href="#aQ"/><use transform="matrix(0.05555555555555555,0,0,0.05555555555555555,56.55555555555556,0)" xlink:href="#aO"/><use transform="matrix(0.05555555555555555,0,0,0.05555555555555555,63.16666666666668,0)" xlink:href="#aM"/></g><g id="aH"><use transform="matrix(0.05555555555555555,0,0,0.05555555555555555,0,0)" xlink:href="#aS"/><use transform="matrix(0.05555555555555555,0,0,0.05555555555555555,10,0)" xlink:href="#aN"/><use transform="matrix(0.05555555555555555,0,0,0.05555555555555555,21.11111111111111,0)" xlink:href="#aR"/><use transform="matrix(0.05555555555555555,0,0,0.05555555555555555,32.22222222222222,0)" xlink:href="#aO"/><use transform="matrix(0.05555555555555555,0,0,0.05555555555555555,38.83333333333333,0)" xlink:href="#aN"/><use transform="matrix(0.05555555555555555,0,0,0.05555555555555555,49.94444444444444,0)" xlink:href="#aR"/><use transform="matrix(0.05555555555555555,0,0,0.05555555555555555,61.05555555555555,0)" xlink:href="#aK"/><use transform="matrix(0.05555555555555555,0,0,0.05555555555555555,72.16666666666667,0)" xlink:href="#aJ"/><use transform="matrix(0.05555555555555555,0,0,0.05555555555555555,77.72222222222223,0)" xlink:href="#aT"/><use transform="matrix(0.05555555555555555,0,0,0.05555555555555555,82.11111111111111,0)" xlink:href="#aQ"/><use transform="matrix(0.05555555555555555,0,0,0.05555555555555555,93.22222222222223,0)" xlink:href="#aU"/></g></defs></g></svg>